<svg xmlns="http://www.w3.org/2000/svg" viewBox="0 0 1217.87 1168.74"><defs><style>.cls-1{fill:#5a97c9;}.cls-2{fill:#fcb0be;}.cls-3{fill:#c4e3ff;}.cls-4{fill:#fafdff;}.cls-5{fill:#e8f4ff;}.cls-6{isolation:isolate;}.cls-7{fill:#fff;}.cls-8{fill:#2b2d45;}.cls-9{fill:#283c5c;}.cls-10{fill:#71b3eb;}.cls-11{fill:#ed586b;}.cls-12{fill:#f5b09f;}.cls-13{fill:#30324d;}.cls-14{fill:#f59b84;}.cls-15{fill:#ed3950;}.cls-16{fill:#548ebd;}</style></defs><g id="Layer_2" data-name="Layer 2"><g id="Layer_1-2" data-name="Layer 1"><path class="cls-1" d="M1104,251c10.71-5.69,25.88-2.82,35.8-10.79,9.2-7.39,11-29.83-6.31-26.86-17.72,3.05-20.59,24.36-29.37,36.81a246.92,246.92,0,0,0,2.52-32.93c4.95-10.9,16.91-19.42,18.58-31.8s-13.3-30.89-24.41-16,1.12,32.48,4,48c0,.63,0,1.26,0,1.89a242.6,242.6,0,0,1-2.23,28.75c-4.44-14.34-2-34.6-17.73-42.16s-20.25,14.47-13.43,24.1c7.2,10.17,22.11,11.72,30.93,19.68q-1.61,11.27-4.13,22.37c-1.71,7.55-3.71,15-5.94,22.44-6.35-15.38-3.55-39.08-21.67-47-17.48-7.61-21.37,16.5-13.58,26.66,8.44,11,25.31,11.86,35.11,20.77-2.89,9.53-6.18,18.95-9.76,28.24q-1.29,3.33-2.62,6.65c-8-15.27-7.15-40.1-26.6-46.65-18.69-6.28-20.56,18.92-11.63,28.7,9.69,10.62,27.19,10,38.08,18.32-5,12.26-10.37,24.32-16.1,36.23-9.22-15.16-10.07-40.67-30.47-46.05-19.63-5.18-19.84,20.84-10,30.28,10.65,10.22,28.52,8.4,40.28,16.16q-1.32,2.73-2.65,5.44c-5.67,11.58-11.49,23.13-17.74,34.43-9.48-15.87-10.5-42.24-31.69-47.83-20.51-5.41-20.71,21.78-10.43,31.64,11.06,10.6,29.55,8.79,41.83,16.7q-4,7.15-8.18,14.15c-4.14,6.82-8.53,13.5-13.24,19.93-11.35-16.24-13.94-44.71-37.06-49.36-22.2-4.47-20.7,24.5-9.12,34.36,12.54,10.68,32.33,7.46,45.93,15.34a190.34,190.34,0,0,1-21.17,24.4c-.83.8.51,2,1.34,1.2q2.59-2.5,5.09-5.12a195.49,195.49,0,0,0,16.4-19.72c13.08,8.82,18.71,28.17,33.81,34.88,13.9,6.18,40.67-5,27-23.07-14.22-18.88-41.08-8.84-60.64-12.1a295.9,295.9,0,0,0,16.63-25.71q2.34-4,4.61-8.12c13.65,5.16,23.23,21,38.31,23.55,14.06,2.36,35.74-14,19.15-27.26-17.09-13.62-38.78,1.2-57.14,3.13,7.21-13,13.89-26.3,20.32-39.68,13.61,2.9,25,16.37,39.6,16.5,13.64.13,31.69-18.62,14-28.64-18.1-10.27-36.29,6.76-53.28,11.45.07-.14.13-.29.2-.43,5.68-11.83,11.07-23.82,16-36,13.45-.06,27.07,10.18,40.86,7.21,12.95-2.78,26.06-24.38,7.19-30.11-19.17-5.83-32.72,13.8-47.68,22,1.71-4.27,3.37-8.57,4.95-12.89q3.87-10.51,7.15-21.25c12.35-3.41,27.48,2.05,39.26-4.38,11.24-6.14,17.45-29.75-1.61-29.88-18.77-.13-26.07,20.44-37.07,32.35,2.79-9.37,5.21-18.84,7.14-28.42Q1102.95,258.28,1104,251Z"/><path class="cls-2" d="M1214.62,399.55c7.19-10.2,2.46-33.54-14.27-25.45-16.56,8-14,29.33-18.58,44.49-.3.56-.59,1.12-.89,1.67a240.33,240.33,0,0,1-15.24,24.48c2.68-14.77,14.2-31.62,3.73-45.58s-24.65,3.5-23,15.19c1.7,12.34,14.21,20.59,18.36,31.73-4.41,6.16-9.09,12.14-14,17.93s-10.22,11.63-15.62,17.17c1.46-16.57,14.87-36.31,2.43-51.66-12-14.81-26.56,4.78-24.35,17.39,2.41,13.67,17,22.2,21.57,34.63q-10.44,10.68-21.68,20.55c-1.79,1.57-3.59,3.14-5.4,4.69-.05-17.24,12.16-38.88-2.08-53.66-13.68-14.2-27,7.3-23.55,20.1,3.69,13.89,19.52,21.39,25.33,33.82-10,8.59-20.42,16.79-31,24.72-1.19-17.71,9.82-40.73-5.79-54.92-15-13.66-27.22,9.34-22.84,22.26,4.73,14,21.43,20.61,28.28,32.92q-2.41,1.82-4.85,3.61c-10.38,7.66-20.87,15.22-31.63,22.35-1.09-18.45,10.18-42.31-6-57.05-15.71-14.26-28.42,9.76-23.85,23.26,4.92,14.51,22.16,21.43,29.41,34.12q-6.81,4.52-13.79,8.77c-6.81,4.14-13.79,8-20.94,11.58-2.57-19.65,8.26-46.1-10.11-60.9-17.63-14.2-29.67,12.2-23.94,26.29,6.2,15.26,25.24,21.53,33.67,34.79a191.82,191.82,0,0,1-30,11.89c-1.11.33-.47,2,.63,1.68,2.3-.69,4.6-1.41,6.88-2.19a197.64,197.64,0,0,0,23.65-9.93c7.53,13.86,3.6,33.62,13.9,46.54,9.48,11.9,38.39,14.34,34.65-8-3.91-23.31-32.38-26.79-48.22-38.71A294.3,294.3,0,0,0,1032,565c2.63-1.66,5.24-3.36,7.84-5.07,9.73,10.87,10.92,29.36,23.13,38.56,11.38,8.58,38.18,4,29.57-15.35-8.88-20-35-16.83-52.14-23.58,12.39-8.2,24.45-16.93,36.33-25.83,10.74,8.85,14.65,26.06,27.52,32.91,12,6.4,36.71-1.91,25.66-18.94-11.33-17.47-35.32-10.75-52.56-14.43l.38-.28c10.5-7.89,20.8-16,30.78-24.58,12,6.15,19.32,21.52,32.93,25.25,12.77,3.51,34.37-9.61,20.27-23.4-14.32-14-35.4-2.85-52.44-2.5q5.24-4.5,10.34-9.15,8.28-7.56,16.14-15.56c12.53,2.67,23.44,14.5,36.86,14.23,12.8-.26,29.2-18.35,12.36-27.25-16.6-8.78-32.57,6.1-47.82,11.59,6.8-7,13.31-14.31,19.44-21.92,3.09-3.83,6.08-7.76,9-11.75,12.13-.11,24.27,9.43,36.74,6.94,11.57-2.31,23.53-21.39,6.79-26.74-17.13-5.48-29.5,12.11-43,19.11a247.06,247.06,0,0,0,17.42-28.06C1192.89,411.81,1207.43,409.76,1214.62,399.55Z"/><path class="cls-3" d="M308.32,198.31c-2-4.65,3.59-21.82,15.2-35.94s8.72-30.48,5-35.89c-7.87-11.44-20.47-1.13-30.48-1.8-11.54-.78,1.14-22.1.41-42.12s-5.83-36.83-18.12-33.21-17.21,15.35-22.65,11S253,20.91,230,7.66c-26-15-37.23-4.13-43.21.74-22,17.89,11.18,56.22,8.66,62.36s-6,12.88-17.09,11.18-25.19,9.9-18.34,25.16,37.44,30.64,49.72,43,10.86,17.29,3.71,20.41-16.82,1.47-19.25,12.09,6.62,23.6,23.74,27,29.83,4,27.56,12.73-19,25.56,12.24,33.26,43.7-2.86,43.7-2.86S344,226.07,329,202.19C322.81,192.4,310.33,203,308.32,198.31Z"/><path class="cls-4" d="M198.59,1.23c.94,2.28,94.37,228.39,97.86,254l1.05-.14c-3.5-25.74-97-252-97.93-254.25Z"/><path class="cls-2" d="M288.59,297.09c-10.94-7.25-18.89,9.52-23.15,5.65s-6.51-24.24-1.11-44.28-5.27-35.6-11.65-39.45c-13.49-8.14-21.69,8.43-32.35,12.42C208,236,211.15,208,201,187.69s-23.28-35.35-34.29-25.85-10.6,23.94-18.25,22-23.34-38.61-53.27-41.57c-34-3.34-40.44,13.18-44.34,21C36.53,192.1,88.77,216.2,89,223.72s-.19,16.13-12.44,19.57-21.4,22-7.17,34.6S122.5,292,141,299s19.33,12.8,13.4,19.37-16.71,9.39-14.24,21.52,17.9,21.29,37.17,16.74,32.73-9.81,34.46.26S204.1,392.23,240,385.56s43.85-23.43,43.85-23.43S315.28,314.76,288.59,297.09Z"/><path class="cls-4" d="M60.5,149.5l-.82.88c2,1.92,204.55,191.93,220.15,216.77l1-.65C265.17,341.53,62.55,151.42,60.5,149.5Z"/><path class="cls-1" d="M329.83,413.24c-12.9-2.4-13.68,16.14-19.11,14.24s-15.45-19.79-18.3-40.34-18.74-30.72-26.11-31.78c-15.6-2.24-16.69,16.22-24.95,24.05-9.53,9-17.57-18-34.83-32.74s-35.23-23.46-41.67-10.42-.42,26.17-8.21,27.39-36.55-26.46-65.26-17.5c-32.6,10.17-32.09,27.91-32.63,36.64-2,32.11,55.53,33.92,58.71,40.74s6.11,14.94-3.82,22.88-11.12,28.63,6.9,34.65,54.37-7.67,74.09-8.45,22.79,4.25,19.9,12.61-11.72,15.17-4.72,25.37,24.79,12.62,40.76.91,26.31-21.79,31.82-13.2,6.74,35.51,37.18,15.38S350.81,475,350.81,475,361.3,419.1,329.83,413.24Z"/><path class="cls-4" d="M61.83,367.45c2.63,1,263.21,96.93,287.26,113.72l.69-1C325.6,463.3,64.87,367.28,62.24,366.32Z"/><ellipse class="cls-5" cx="587.96" cy="1082.4" rx="587.96" ry="86.34"/><g class="cls-6"><path class="cls-7" d="M1044.15,216H292.32a4.53,4.53,0,0,0-4.21,4.78v523.6a4.53,4.53,0,0,0,4.21,4.78h751.83a4.52,4.52,0,0,0,4.21-4.78V220.73A4.52,4.52,0,0,0,1044.15,216Z"/><path class="cls-8" d="M1064.39,176.68H272.09c-7.18,0-13,6.6-13,14.74v582.2c0,8.15,5.82,14.76,13,14.76h792.3c7.17,0,13-6.61,13-14.76V191.42C1077.38,183.28,1071.56,176.68,1064.39,176.68Zm-16,567.64a4.53,4.53,0,0,1-4.21,4.79H292.33a4.53,4.53,0,0,1-4.22-4.79V220.73a4.54,4.54,0,0,1,4.22-4.79h751.82a4.54,4.54,0,0,1,4.21,4.79Z"/><path class="cls-9" d="M1083.69,191.42c0-5.83-3.16-11.36-8.06-13.64-3.49-1.63-7.55-1.1-11.24-1.1,7.35,0,12.87,6.92,13,14.77,0,.48,0,580.56,0,582.16-.11,7.86-5.66,14.77-13,14.77,2.27,0,4.56.09,6.83,0a12.61,12.61,0,0,0,9.45-5.27,16.45,16.45,0,0,0,3-9.78c0-2.19,0-578.07,0-580.86Z"/></g><rect class="cls-5" x="417.08" y="79.99" width="508.64" height="669.12"/><circle class="cls-10" cx="533.86" cy="216.27" r="70.33"/><circle class="cls-11" cx="576.52" cy="191.61" r="53.31"/><rect class="cls-11" x="417.08" y="79.99" width="508.64" height="41.94" rx="10.82"/><rect class="cls-10" x="689.78" y="155.15" width="193.74" height="18.2" rx="8.1"/><rect class="cls-10" x="689.78" y="203.36" width="193.74" height="18.2" rx="8.1"/><rect class="cls-10" x="689.78" y="251.56" width="138.31" height="18.2" rx="8.1"/><path class="cls-7" d="M633.83,506.73H469.19a5.62,5.62,0,0,0-5.6,5.6h0a5.62,5.62,0,0,0,5.6,5.6H633.83a5.62,5.62,0,0,0,5.6-5.6h0A5.62,5.62,0,0,0,633.83,506.73Z"/><rect class="cls-7" x="463.59" y="565.73" width="175.85" height="11.2" rx="5.6"/><rect class="cls-7" x="463.59" y="624.74" width="175.85" height="11.2" rx="5.6"/><path class="cls-7" d="M875.13,506.73H710.49a5.62,5.62,0,0,0-5.6,5.6h0a5.62,5.62,0,0,0,5.6,5.6H875.13a5.62,5.62,0,0,0,5.6-5.6h0A5.62,5.62,0,0,0,875.13,506.73Z"/><rect class="cls-7" x="704.89" y="565.73" width="175.85" height="11.2" rx="5.6"/><rect class="cls-7" x="704.89" y="624.74" width="175.85" height="11.2" rx="5.6"/><rect class="cls-7" x="463.52" y="380.6" width="175.91" height="80.28" rx="8.1"/><rect class="cls-7" x="704.85" y="380.6" width="175.91" height="80.28" rx="8.1"/><rect class="cls-7" x="433.69" y="92.73" width="24.13" height="1.62"/><rect class="cls-7" x="433.69" y="100.15" width="24.13" height="1.62"/><rect class="cls-7" x="433.69" y="107.58" width="24.13" height="1.62"/><path class="cls-9" d="M1102,885.75H971.09a7.57,7.57,0,0,0-7.57,7.57h0a7.57,7.57,0,0,0,7.57,7.58H1102a7.58,7.58,0,0,0,7.58-7.58h0A7.57,7.57,0,0,0,1102,885.75Z"/><rect class="cls-9" x="995.93" y="1078" width="81.26" height="18.21" rx="9.1"/><rect class="cls-9" x="1030.96" y="900.9" width="11.21" height="191.35"/><path class="cls-12" d="M872.09,734.23c-7.36-2.09-21.25-10.84-25.87-12.11-3.46-.94-6.88,2.68.44,8,.35.25,3.93,2.65-.65,1.21-6.41-2-23.47-7.95-24.64-3.79-2.36,8.41,9,16.62,15.32,18.73a81.25,81.25,0,0,0,33,3.32C872.21,749.21,877.74,735.83,872.09,734.23Z"/><path class="cls-10" d="M1015.24,655c-8,4.53-39.34,78.79-49.26,81.6-30.4,8.59-91.26-7.37-96.94-6.89s-8.7,24.18-7.11,25.65,83.27,23.66,117,18.08c17-2.81,56.33-73.15,62.06-82.84C1053.66,669.16,1032.62,645.11,1015.24,655Z"/><path class="cls-7" d="M902.57,1033.88c-.89,11.74-1.39,32-.7,39.21.66,6.93,19.87,7.44,18.82.23-.09-.58,7-32.52,7-39.44C927.73,1028.87,902.89,1029.59,902.57,1033.88Z"/><path class="cls-7" d="M1005.07,1019c-1.74-4.7-22.1,7.57-20.63,11.62,3.42,9.42,11.51,24.34,14.86,31.59,1.46,3.15,19.75-1.35,18.19-5.69C1016.53,1053.81,1008.29,1027.67,1005.07,1019Z"/><path class="cls-8" d="M1048.53,820.13c-18.24,6.2-138.4,30-147.5,46.17-10.23,18.2-6.35,185.63-4.66,196.92.53,3.48,31.15,3.75,31.32,1.11.34-5,15.85-165.91,17.36-168.69s92.42-5.55,93.73-7.78S1051.46,819.13,1048.53,820.13Z"/><path class="cls-13" d="M917.83,869.55c-10.46,22.57,69.72,181,71.88,184.41,1.47,2.32,28.63-7.67,27.65-11-1.64-5.51-37.45-119.23-44.3-138.56,2.06-5.67,99.75.86,118.48-20.77s21.62-43.77,17.89-67.33C1107.71,802.17,928.28,847,917.83,869.55Z"/><path class="cls-10" d="M1058.51,643.47c3.11,1.6-3.45,2-16.92,2.74s-28.1,9.25-28.64,11.23c-3.88,14.14-6.8,169-4.39,174,6.06,12.46,100.64,22.49,102.73,18.58,12.46-23.35,9.14-165-1.84-187C1099.08,642.27,1049.52,638.84,1058.51,643.47Z"/><path class="cls-12" d="M1058.44,608.06c-3-3.77-24.18,11.05-24,14.85s1.55,22.56.4,24.25c-1.54,1.6.53,22.52,6.52,23.33,6.57.88,32.13-23.85,29.87-28.88C1070.35,638.9,1058.44,608.06,1058.44,608.06Z"/><path class="cls-14" d="M1035.1,634.87l.14,9.85c3.75-.53,17.81-18,19.38-20.9C1049.23,630.51,1035.1,634.87,1035.1,634.87Z"/><path class="cls-12" d="M1034.61,551.43c-16.21,0-29.35,19.4-29.35,43.34s13.62,44.17,29.35,40.23c17.92-4.49,29.35-16.3,29.35-40.23S1050.82,551.43,1034.61,551.43Z"/><path class="cls-8" d="M1066.19,558.57c-2.52-4.14-8.41-6.64-12.39-3.87.89-4.47-4.51-7.37-8.91-8.59-11-3-28.38-3.44-33.42-.18s-5.11,8.25-3.07,12.24c-4.21-.66-8.77,2.58-10.28,6.56-2.16,5.7-2.25,23.18,7.17,27.9.13-5.8,2-17.16,4.92-19a5.27,5.27,0,0,1,1.9-.86c6.53-1.11,9.82,1.4,16.3-.64,5.11-1.6,9.44-5.13,15-5.15,13.3,0,9.39,19,8.86,27.77-.15,2.62-.27,5.52,1.4,7.54s5.82,1.74,6.13-.87c.08-.73-.15-1.47,0-2.19.53-2.69,4.7-2,7-3.55,1.9-1.32,2.08-4,2.08-6.33l-.06-16.68C1068.81,567.84,1068.72,562.71,1066.19,558.57Z"/><path class="cls-12" d="M1062.22,588.91c-3,0-5.48,4.32-5.48,9.64s2.46,9.64,5.48,9.64,5.49-4.31,5.49-9.64S1065.25,588.91,1062.22,588.91Z"/><path class="cls-9" d="M907.43,711.37c-1.85-5.21-8-9.4-13.7-9.36l-43.13.28c-5.72,0-8.87,4.28-7,9.48l22,62.08c1.85,5.2,8,9.39,13.7,9.35l43.13-.27c5.72,0,8.87-4.29,7-9.49Z"/><path class="cls-12" d="M950.66,763.43c-7.6-.83-22.76-7.15-27.53-7.63-3.57-.35-6.33,3.79,1.76,7.76.39.19,4.32,2-.43,1.3-6.66-.92-24.47-3.92-24.93.38-.93,8.68,11.63,14.88,18.22,15.91a81.37,81.37,0,0,0,33.08-2.22C953.27,778.18,956.5,764.07,950.66,763.43Z"/><path class="cls-10" d="M1078.62,661.46c-7.11,5.79-25.67,84.24-35,88.65-28.54,13.54-91.21,7.93-96.73,9.36s-4.56,25.29-2.74,26.47,86,9.46,118.37-1.65c16.32-5.61,43.37-81.51,47.41-92C1118.86,669,1094.11,648.83,1078.62,661.46Z"/><path class="cls-1" d="M1062.37,783.81c-11,3.79-29,5.7-53.47,5.7h-1.16v1h1.16c24.6,0,42.69-1.93,53.8-5.75,4.63-1.59,10.49-8.8,17.4-21.42l-.88-.48C1072.43,775.25,1066.77,782.3,1062.37,783.81Z"/><path class="cls-1" d="M960.12,758.81c-7.17-.12-11.92-.19-13.35.17l.25,1c1.3-.33,6.25-.25,13.09-.14,4.41.07,9.58.15,15.21.15,6.56,0,13.76-.11,21.13-.49l-.05-1C982.73,759.17,969.66,759,960.12,758.81Z"/><path class="cls-1" d="M1043.42,749.66c-8.13,3.86-20,6.54-35.28,8l.09,1c15.4-1.46,27.38-4.17,35.62-8.08,2.77-1.31,6.24-8.14,11.24-22.13l-.94-.34C1052.39,733,1047.05,747.94,1043.42,749.66Z"/><path class="cls-8" d="M856.79,1090.23c.31,1.35.58,3.73,2,4.41,7.54,3.57,35.58,3.1,61.4,1.95a3.16,3.16,0,0,0,3-2.63c.37-2.24.11-6.46-2.26-14.36Z"/><path class="cls-13" d="M921.49,1073.17c-6.29.52-12.92.57-16.27-1s-3.77-3.45-3.85-3.67c0,0-11.63,4.75-19.27,7.26-8.26,2.7-18.36,3.67-23.43,6.51-3.41,1.92-3.24,6.28-1.35,9.38,3.66,5.94,61.83,2.84,65.61.95.76-.39,2.18-5.73-1.44-19.43Z"/><path class="cls-8" d="M905.22,1072.18c-3.41-1.6-3.7-3.34-3.85-3.67h0c-.14.61-.76,10,10.25,13.83,2.38.82,9.6-8.66,9.92-9.1a.54.54,0,0,0,0-.08S908.57,1073.74,905.22,1072.18Z"/><path class="cls-8" d="M1019.08,1060.14l-55.78,33.42c.78,1.15,1.9,3.26,3.49,3.36,8.33.56,34.24-10.16,57.83-20.7a3.17,3.17,0,0,0,1.83-3.55C1026,1070.44,1024.18,1066.62,1019.08,1060.14Z"/><path class="cls-13" d="M1017.22,1054c-5.66,2.79-11.81,5.27-15.5,5s-4.77-1.82-4.93-2c0,0-9.07,8.69-15.26,13.82-6.69,5.54-15.73,10.15-19.41,14.66-2.46,3-.71,7,2.2,9.22,5.57,4.18,58.55-20,61.37-23.19.57-.64-.07-6.12-8.46-17.54Z"/><path class="cls-8" d="M1001.72,1059c-3.75-.23-4.66-1.75-4.93-2l0,0c.09.61,3,9.58,14.61,9.1,2.51-.11,5.74-11.58,5.88-12.11l0-.06S1005.41,1059.23,1001.72,1059Z"/><path class="cls-9" d="M922.94,755.73c-3.57-.36-6.27,3.86,1.82,7.83a15.27,15.27,0,0,1,1.45.77l-3-8.55Z"/><path class="cls-9" d="M659,885.75H528.09a7.58,7.58,0,0,0-7.58,7.57h0a7.58,7.58,0,0,0,7.58,7.58H659a7.58,7.58,0,0,0,7.58-7.58h0A7.57,7.57,0,0,0,659,885.75Z"/><rect class="cls-9" x="552.93" y="1078" width="81.26" height="18.21" rx="9.1"/><rect class="cls-9" x="587.96" y="900.9" width="11.21" height="191.35"/><path class="cls-7" d="M615.46,1009.39c-1.35,13.35-5.79,55.53-5.77,58.9,0,2.57,17.34,7.71,18.44,2.52.18-.84,9.27-62,7.92-62.93C633.37,1006,616.21,1002,615.46,1009.39Z"/><path class="cls-8" d="M634,846.73c-20.24-9.47-68.16-31.18-75.35-25.58-8.85,6.89-11,56.52,29.47,59,4.92.3,11-.19,18.62,1.72,7.84,2-.55,159.6-.95,164-.51,5.66,34.17,9.53,34.8,4.35C641.05,1046.72,668.13,862.69,634,846.73Z"/><path class="cls-7" d="M721.37,1024.67c-7.33-13.56-8.36-35.16-10.09-35.24-3.28-.15-39.59,5.78-29.94,15.49,11.19,11.27,24.89,31.2,33.51,42.52,4-2.36,17.29-6.44,15.41-11.4C730,1035.3,725,1031.4,721.37,1024.67Z"/><path class="cls-8" d="M696.49,1045.2a6.61,6.61,0,0,0,.18,2.84c13.89,6.22,46,21.2,51.9,18.31C751.4,1067.18,697.75,1044.58,696.49,1045.2Z"/><path class="cls-11" d="M735.65,1041c-5.23-4.67-9.21-13.15-10.09-14.19s-6.53-.07-6.83,3.54-4.81,6.29-7.19,5.85-10.59-9.19-11.86-8.57-4.43,13.9-3.19,17.56c20.27,9.22,42.11,18,52.08,21.15,4.61-1.42,8.13-5,4.42-11.07C750.86,1051.78,741.46,1046.19,735.65,1041Z"/><path class="cls-8" d="M605.31,1074.73a6.63,6.63,0,0,0,.18,2.84c13.89,6.21,46,21.2,51.9,18.31C660.21,1096.71,606.57,1074.11,605.31,1074.73Z"/><path class="cls-11" d="M644.47,1070.54c-5.24-4.67-9.21-13.15-10.09-14.19s-6.53-.07-6.83,3.54-4.81,6.29-7.2,5.85-10.59-9.19-11.85-8.57-4.43,13.9-3.19,17.56c20.27,9.22,42.11,18,52.08,21.15,4.61-1.42,8.13-5,4.42-11.07C659.67,1081.31,650.28,1075.71,644.47,1070.54Z"/><path class="cls-13" d="M649.48,851.54C630.2,840.26,527.15,823.32,520,828.92c-8.85,6.89-11.78,60.06,28.69,62.64s69.89,5.9,77.21,9.34,58.48,113.89,62.79,122.5,34.54-4.57,32.52-12.28C718.91,1002.5,679.07,868.84,649.48,851.54Z"/><path class="cls-8" d="M551.52,598.22c-5.22,17.28-9.21,34.89-12.76,52.58-1.08,5.39-18.24,27.9-19,30.77s86.91-8.89,90.28-10c-10.38-14.87.46-57.69,1.56-78.08C611.36,592.61,552.19,596,551.52,598.22Z"/><path class="cls-12" d="M586.29,630c-.54-4.29-24.7-13.27-24.88-4.66-.4,18.89-5.14,25.49-16.54,30.09-1.34,5.15-17.91,18.45-19.24,24.89,17.88,3.59,58.51.43,77.41.16-1.44-8.21-5.26-14.79-12.22-24.58C584.93,653.61,587.67,641.06,586.29,630Z"/><path class="cls-14" d="M560.6,635.44c-.17.67-.42,2.26-.42,2.26s4.15,11.38,13,13.1c7.31,1.42,13.31-.45,13.69-5.09C587.2,641.72,566.23,636.22,560.6,635.44Z"/><ellipse class="cls-12" cx="579.2" cy="608.11" rx="26.24" ry="40.07"/><path class="cls-8" d="M560.38,560.49c-19.85,8.69-30.47,42.67-31.48,64.14-.84,17.83-10,35.71-9.26,52.41.34,7.23,19.31-15.68,25.51-22.78,1.56-1.79,2.5-34.6,12.34-46,4.2-16,5.43-17.41,8-19.78,3.56-3.2,10.38-4.11,14.85-3.84,10.25.64,24,22.78,25,33a69.77,69.77,0,0,1,4.3-14.78c3.89-9,1.68-23-4.3-30.17C592.91,557.61,578.05,552.76,560.38,560.49Z"/><path class="cls-12" d="M554,602.87c-3,.25-5,5.06-4.57,10.74s3.29,10.08,6.29,9.83,5-5.05,4.57-10.74S557,602.62,554,602.87Z"/><path class="cls-11" d="M631.88,766.24c-4.4-20.78-10.15-79.9-24-100.72-13.26-4.79-14.28-4-17.66,4.86-11.84,31.06,6.53,113.14,16.37,125.11,13.87,16.87,111.23,7.52,116.63,4s-.27-17.27-2.65-21.27S633.68,774.77,631.88,766.24Z"/><path class="cls-11" d="M590.82,655.9c1,4.46,2.16,14.09-9.5,15.7-17.61,2.42-29.44-12.26-31-18.89-7.31,3.08-25.43,11.43-27,12.37.51,3.65-19.2,146.24-10.92,179.33,25.22,11.79,52.11-13.94,91.88-6,1-6.44,1.11-27.2,2.89-55.24.35-5.55,4-27.65,7.76-45.51,4.87-23.23-3.13-54.16-7.07-72.17C604.84,662.31,604,660.85,590.82,655.9Z"/><path class="cls-11" d="M525.16,757.19c4.8-17,18-59.72,19.83-67.44,5.6-23-14.76-30.19-22.08-24.17C497.26,686.71,480,773.77,492.17,783.43c16.83,13.41,118.48,3.31,124.94,2.88s5.34-11.36,5.26-16S537.21,757.86,525.16,757.19Z"/><path class="cls-15" d="M622.87,770.28c0-1-.06-3.43-44.56-8.53-22.3-2.55-45.64-4.6-52.5-5,2-7,5.28-18,8.76-29.62l-1-.29c-3.58,11.93-7,23.22-8.93,30.24l-.17.6.62,0c17.84,1,95.22,8.69,96.74,12.62,0,.48,0,1,0,1.61.18,5.07.48,13.55-4.84,13.9l-3.54.3c-47,4-81.36,4.83-102.07,2.36l-.12,1a255.89,255.89,0,0,0,29.46,1.41c19.24,0,43.58-1.25,72.82-3.77l3.52-.29c6.28-.42,6-9.5,5.77-14.93C622.89,771.29,622.87,770.76,622.87,770.28Z"/><polygon class="cls-8" points="616.32 767.82 611.23 784.29 749.34 784.29 776.23 697.31 638.12 697.31 616.32 767.82"/><polygon class="cls-8" points="587.47 788.34 747.18 788.34 749.32 784.29 589.61 784.29 587.47 788.34"/><path class="cls-9" d="M696.48,732.35c-7.41-6.13-16.72,1.2-13,10.26-8.56,9-3.18,16.39,7.51,10.26,7.41,6.13,16.72-1.21,13-10.26C712.55,733.55,707.18,726.22,696.48,732.35Z"/><rect class="cls-9" x="220.42" y="788.34" width="806.59" height="16.99"/><polygon class="cls-9" points="303.36 1097.43 314.38 1097.43 405.2 800.36 394.18 800.36 303.36 1097.43"/><polygon class="cls-9" points="331.3 800.36 422.12 1097.43 433.14 1097.43 342.32 800.36 331.3 800.36"/><polygon class="cls-9" points="814.28 1097.43 825.3 1097.43 916.13 800.36 905.1 800.36 814.28 1097.43"/><polygon class="cls-9" points="842.22 800.36 933.04 1097.43 944.07 1097.43 853.24 800.36 842.22 800.36"/><path class="cls-7" d="M91.91,1032.17c-4,12-6.93,38.09-7,38.66-1.06,7.21,15.47,7.24,17.71.65,1.71-5,8.28-22,11.19-32.19C115,1035.14,93.5,1027.42,91.91,1032.17Z"/><path class="cls-16" d="M136.29,717.78c-8.56,48.14-54.33,336-55.25,340.09-1.1,4.88,28.46,9.41,29.64,4.44s80.8-281.13,99.49-341C217.26,698.62,141.67,687.51,136.29,717.78Z"/><path class="cls-12" d="M429.67,711.44c-4.6-1.4-.28-1.35.15-1.36,9-.21,8.24-5.13,4.85-6.31-4.53-1.57-20.93-2.2-28.18-4.63-5.57-1.87-8.57,12.29-6.67,14A81.39,81.39,0,0,0,428.91,729c6.41,1.83,20.42,1.48,23.22-6.79C453.52,718.15,436.09,713.4,429.67,711.44Z"/><path class="cls-9" d="M342.87,648.82c-6.24-13.09-11.73-64.6-16.5-89.39-9.22-12-28.41-6-35.4,18-6.3,21.67,13,75.95,26.13,94.34,9.2,12.93,72.55,42.9,81,46,2.57.92,13.6-22.12,11.06-23.65C402.62,690.18,349.19,662.07,342.87,648.82Z"/><path class="cls-7" d="M210.17,1042.71c0,6.92.13,28,0,28.55-1.05,7.21,18.15,6.71,18.82-.22.69-7.2,3.14-18.93,3.67-28.17C233,1038.56,210.15,1037.7,210.17,1042.71Z"/><path class="cls-1" d="M157.91,672c-7.57,8.13-33.19,40.59-18.87,96,8.11,31.41,48.18,82.15,52.43,113.13.63,4.62,11.77,168.66,13.17,179.78.81,6.36,30,4.6,30-.67,0-9.24,10.21-165.76,10.59-182.87.35-15.83-24.15-146.58-30.43-182.77C211.1,673.47,159.34,670.49,157.91,672Z"/><path class="cls-9" d="M314.3,542.88c-16.36-15.71-19.63-20.88-28-21.69-14.48-1.42-27.81,3.58-36.37,10.94C194.37,579.87,147.31,671.68,134.76,699c4.82,19.64,79.44,51.28,94.54,47.88,6.25-7.61,25.29-60,48.95-94,7.31-10.51,55.43-79,47.54-95.07C324.13,554.37,317,545.51,314.3,542.88Z"/><path class="cls-12" d="M285.86,772.29c-2.72-1.58-2.46-17.72-3-17.11-2,2.23-16.36-5.57-15.2-2.66.34.86,1.78,35.63,8,35.82,15.24.47,23.12-.18,33.6.11,3.34.09,13.48-.48,13.74-5.65C323.21,778.08,290.17,774.81,285.86,772.29Z"/><path class="cls-9" d="M243.39,557.32c-7,18.55,16.53,201.66,21.37,213.48.8,2,23.81,0,23.54-3.45-1.05-13.51-.14-195-5.77-210.56C274.77,535.29,250.69,538,243.39,557.32Z"/><path class="cls-8" d="M252.77,697.1c-3.35-26.64-6.28-53.42-8.24-75.41l1-.09c2,22,4.88,48.75,8.24,75.38Z"/><path class="cls-12" d="M362.47,450.17c-15.58-8.05-33.5-1.22-45.22,20.77-6.95,13-10.9,28.56-15.31,35.91-5.5,9.16-5.72,11-10.86,15.49,4.83,34.63,27.53,34.75,25.73,23.26,3.31-6.4,5.42-11.59,9.6-9.39,4.57,2.39,3.95,3.42,8,5.41,6.82,3.33,30.45-16.25,43.68-41.29C389.76,478.3,378.05,458.21,362.47,450.17Z"/><path class="cls-8" d="M389.5,490.13c1.74-1,2.31-3.2,1.17-7.91-1.25-5.18-6.71-5.25-6.11-8.39,1.32-6.82-5.41-8.69-8.24-11.91.79-3.61-5.31-13.18-18.12-13.56C334.1,434.21,310,471.1,306.13,490.3c-2.81,14-8.2,15.08.51,21,11.05,7.53,30.58-9.79,38.11-4.44,5.68-.21,2.26-15,9-14.21,10.7,1.24,24.11,11.42,32.71,8.71C393,499.35,395.51,494.72,389.5,490.13Z"/><path class="cls-12" d="M334.1,500.53c-3.6,3.41-5,7.77-3.15,9.74s6.28.79,9.88-2.62,5-7.77,3.16-9.73S337.7,497.12,334.1,500.53Z"/><path class="cls-14" d="M314.81,518.49s1.76,15.19,4.63,22.06c2-3.85,4.85-5.77,7-4.34C324.26,535,314.81,518.49,314.81,518.49Z"/><path class="cls-8" d="M208.54,1091.11a3.1,3.1,0,0,0,2.93,2.57c25.21,1.12,52.59,1.58,60-1.91,1.4-.67,1.66-3,2-4.31l-62.66-10.38C208.43,1084.8,208.18,1088.91,208.54,1091.11Z"/><path class="cls-13" d="M271.57,1079.7c-5-2.77-14.82-3.72-22.89-6.36-7.46-2.45-18.81-7.09-18.81-7.09-.08.22-.44,2-3.76,3.58s-9.75,1.48-15.89,1v0c-3.53,13.37-2.15,18.59-1.41,19,3.7,1.86,60.5,4.88,64.07-.92C274.73,1085.83,274.89,1081.57,271.57,1079.7Z"/><path class="cls-8" d="M229.87,1066.25c-.16.32-.44,2-3.76,3.58s-15.89,1-15.89,1l0,.08c.32.43,7.37,9.69,9.69,8.88,10.76-3.73,10.15-12.9,10-13.5Z"/><path class="cls-8" d="M83,1091.11a3.11,3.11,0,0,0,2.93,2.57c25.21,1.12,52.59,1.58,60-1.91,1.41-.67,1.67-3,2-4.31L85.2,1077.08C82.89,1084.8,82.63,1088.91,83,1091.11Z"/><path class="cls-13" d="M146,1079.7c-5-2.77-14.82-3.72-22.88-6.36-7.47-2.45-18.82-7.09-18.82-7.09-.08.22-.43,2-3.76,3.58s-9.75,1.48-15.89,1v0c-3.53,13.37-2.15,18.59-1.41,19,3.7,1.86,60.5,4.88,64.07-.92C149.18,1085.83,149.34,1081.57,146,1079.7Z"/><path class="cls-8" d="M104.32,1066.25c-.15.32-.43,2-3.76,3.58s-15.89,1-15.89,1a.54.54,0,0,0,0,.08c.32.43,7.36,9.69,9.68,8.88,10.76-3.73,10.16-12.9,10-13.5Z"/><path class="cls-10" d="M93.64,593.18a16.39,16.39,0,1,0-14.18,6.62,16.28,16.28,0,0,0-3.18,8.78,16.39,16.39,0,1,0,17.3,17.3,16.38,16.38,0,0,0,.06-32.7Zm-27.57-9.73a14.4,14.4,0,1,1,25,9.76,16.36,16.36,0,0,0-9.86,4.6c-.23,0-.47,0-.7,0A14.42,14.42,0,0,1,66.07,583.45Zm11.16,55.88a14.39,14.39,0,0,1-1-28.75,16.41,16.41,0,0,0,15.3,15.3A14.4,14.4,0,0,1,77.23,639.33Zm1-28.75a14.42,14.42,0,0,1,13.3,13.3A14.42,14.42,0,0,1,78.28,610.58Zm15.3,13.3a16.41,16.41,0,0,0-15.3-15.3,14.33,14.33,0,0,1,3.79-8.81,16.31,16.31,0,0,0,9.86-4.61c.23,0,.46,0,.7,0a14.39,14.39,0,0,1,1,28.75Z"/><path class="cls-10" d="M1140.85,990.66a20.35,20.35,0,0,0-19.66,15.25,22.44,22.44,0,1,0,20.61,25.37,20.32,20.32,0,0,0-1-40.62Zm-18.24,18.55c.38.29.75.59,1.11.91-.38,0-.77,0-1.15-.07C1122.58,1009.77,1122.58,1009.49,1122.61,1009.21Zm6.57,4.49a18.32,18.32,0,0,1,10.62,15.57,18.17,18.17,0,0,1-8.14-2.44,21.46,21.46,0,0,0,.25-3A20.07,20.07,0,0,0,1129.18,1013.7Zm.73,10.11c0,.61,0,1.2-.09,1.79a18.3,18.3,0,0,1-7.25-13.55,17.21,17.21,0,0,1,3.46.53A18.23,18.23,0,0,1,1129.91,1023.81Zm-36.66,0a18.29,18.29,0,0,1,27.52-15.83,20,20,0,0,0-.2,2.06,20.28,20.28,0,0,0-16.66,30.4A18.34,18.34,0,0,1,1093.25,1023.81Zm13.82,17.75a18.28,18.28,0,0,1,13.5-29.52,20.36,20.36,0,0,0,8.88,15.78,18.34,18.34,0,0,1-17.87,14.32A18.1,18.1,0,0,1,1107.07,1041.56Zm14.45,7.09a18.23,18.23,0,0,1-12.14-4.63,19.86,19.86,0,0,0,2.2.12,20.35,20.35,0,0,0,19.66-15.24,20.14,20.14,0,0,0,8.56,2.37A18.33,18.33,0,0,1,1121.52,1048.65Zm20.28-19.37A88.36,88.36,0,0,0,1123,1007a18.32,18.32,0,1,1,18.83,22.29Z"/><path class="cls-10" d="M387.72,91.26a19.63,19.63,0,0,0-7.28-.12A19.57,19.57,0,1,0,363,119.53a19.8,19.8,0,0,0,3.28-.28,20.3,20.3,0,0,0,1.36,2.29,19.62,19.62,0,1,0,19.57,8.2,19.6,19.6,0,0,0,.56-38.48Zm-28.37,25.9a17.6,17.6,0,0,1,3.56-34.83,18,18,0,0,1,3.63.37,17.54,17.54,0,0,1,11.88,8.89,19.54,19.54,0,0,0-13,25.75A17.59,17.59,0,0,1,359.35,117.16Zm8-.22a17.58,17.58,0,0,1,11.91-23.52,17.55,17.55,0,0,1-11.91,23.52Zm20.89,27.47A17.6,17.6,0,1,1,369,123.35a19.44,19.44,0,0,0,10.7,6.28,19.73,19.73,0,0,0,4,.42c.39,0,.78,0,1.16-.05A17.56,17.56,0,0,1,388.26,144.41Zm-16.58-21.16a18.4,18.4,0,0,1,2.94.34,17.5,17.5,0,0,1,8.44,4.42,16.57,16.57,0,0,1-2.94-.34A17.33,17.33,0,0,1,371.68,123.25ZM400.94,114a17.6,17.6,0,0,1-15.2,13.87,19.27,19.27,0,0,0-15.87-6.63,17.47,17.47,0,0,1-1.63-2.49,19.63,19.63,0,0,0,13.89-14.86,19.4,19.4,0,0,0-.87-10.9,18.12,18.12,0,0,1,2.45-.18A17.59,17.59,0,0,1,400.94,114Z"/></g></g></svg>