<svg xmlns="http://www.w3.org/2000/svg" viewBox="0 0 860.4 663.69"><defs><style>.cls-1{isolation:isolate;}.cls-11,.cls-2,.cls-26{fill:#a8c4e5;}.cls-2{opacity:0.4;}.cls-11,.cls-2{mix-blend-mode:multiply;}.cls-3{fill:#d7e8f7;}.cls-17,.cls-31,.cls-4,.cls-41{fill:#fff;}.cls-5{fill:#4367c7;}.cls-6{fill:#dcf1ff;}.cls-7{fill:#ebd265;}.cls-8{fill:#2c4482;}.cls-9{fill:#add5f7;}.cls-10{fill:#ff5c97;}.cls-12{fill:#27e0c0;}.cls-13{fill:#ffd22d;}.cls-14{fill:#ffc2b0;}.cls-15{fill:#88bdeb;}.cls-16{fill:#283d75;}.cls-17{opacity:0.46;}.cls-18{fill:#513554;}.cls-19{fill:#fcfeff;}.cls-20{fill:#dbefff;}.cls-21{fill:#715154;}.cls-22{fill:#dcefff;}.cls-23{fill:#21275e;}.cls-24{fill:#d0e7f4;}.cls-25{fill:#ea8a6c;}.cls-27{fill:#e1eaf4;}.cls-28{fill:#d84177;}.cls-29{fill:#a7d1e8;}.cls-30{fill:#ffe47c;}.cls-31{opacity:0.51;}.cls-32{fill:#5986ff;}.cls-33{fill:#dea749;}.cls-34{fill:#324d94;}.cls-35{fill:#ff619a;}.cls-36{fill:#ef487c;}.cls-37{fill:#50dec6;}.cls-38{fill:#45bfab;}.cls-39{fill:#8585ff;}.cls-40{fill:#36475c;}.cls-41{opacity:0.43;}.cls-42{fill:#4264bf;}.cls-43{fill:#715255;}.cls-44{fill:#e9e9ff;}.cls-45{fill:#a1a1e5;}.cls-46{fill:#565682;}.cls-47{fill:#6b6b9b;}.cls-48{fill:#45446c;}.cls-49{fill:#5366c4;}.cls-50{fill:#97cbff;}.cls-51{fill:#514677;}.cls-52{fill:#423a66;}.cls-53{fill:#bc4073;}</style></defs><g class="cls-1"><g id="Layer_2" data-name="Layer 2"><g id="image"><path class="cls-2" d="M696.12,545.81,573.69,614.14c-2.75,1.53-3.85,4.67-2.45,7s4.81,2.92,7.56,1.38l127.12-70.94Z"/><path class="cls-2" d="M640,524l-10-5.6L517.16,581.29c-2.75,1.53-3.85,4.67-2.45,7s4.81,2.92,7.56,1.38Z"/><path class="cls-2" d="M461.7,390.5,576.83,324a6.47,6.47,0,0,1,6.48,0L857.17,482.14a6.48,6.48,0,0,1,0,11.21L725,569.68Z"/><path class="cls-3" d="M307.19,17.62,336,1.41l22.73,32.72S337.17,60.5,336,61.4,307.19,17.62,307.19,17.62Z"/><path class="cls-3" d="M755.86,539.08l4.28-272.74c.17-12.19-6.64-26.16-15.22-31.19L347.39,1.81c-8.57-5-15.66.78-15.83,13l-3.87,274.58c-.18,12.19,6.64,26.16,15.21,31.19l365.79,214.7-9.8,22.87L721,570.83l27.13-15C752.77,552.77,755.77,545.17,755.86,539.08Z"/><path class="cls-4" d="M711,569.9,313.46,336.56c-8.57-5-15.38-19-15.21-31.19l3.87-274.58c.17-12.19,7.26-18,15.84-13L715.49,251.16c8.57,5,17.55,19.8,17.37,32l-6,273.78C726.66,569.12,719.57,574.93,711,569.9Z"/><polygon class="cls-2" points="707.64 354.75 300.08 115.53 302.21 27.8 710.07 263.05 707.64 354.75"/><polygon class="cls-5" points="692.9 344.61 261.61 91.46 265.44 19.1 695.15 271.33 692.9 344.61"/><path class="cls-6" d="M300.83,72.77c-.23,7.54-5.66,10.57-12.12,6.78S277.2,66.57,277.43,59s5.66-10.57,12.12-6.78S301.06,65.23,300.83,72.77Z"/><ellipse class="cls-7" cx="321.57" cy="86.86" rx="9.82" ry="16.56" transform="translate(-2.38 164.38) rotate(-28.57)"/><path class="cls-8" d="M365.71,114.46c-.23,7.54-5.65,10.58-12.11,6.78s-11.52-13-11.29-20.51S348,90.15,354.43,94,365.94,106.92,365.71,114.46Z"/><path class="cls-4" d="M644,267.16c2.74,11.49-4.33,18.34-15.74,15.26S605.36,267.48,602.62,256s4.34-18.34,15.75-15.26S641.29,255.66,644,267.16Zm-5.22-1.41c-2-8.59-10.65-17.45-19.18-19.75s-13.81,2.81-11.77,11.4S618.5,274.85,627,277.15,640.84,274.34,638.8,265.75Z"/><path class="cls-4" d="M652.12,301.07h0a3.65,3.65,0,0,1-5.12-.76l-11.9-16.75a3.72,3.72,0,0,1,.92-5.14h0a3.65,3.65,0,0,1,5.12.77L653,295.93A3.72,3.72,0,0,1,652.12,301.07Z"/><path class="cls-9" d="M414.41,355.23l-77.35-43.86c-3.94-2.24-7-8.1-6.79-13.1l4.87-131.89c.18-5,3.52-7.25,7.46-5L420,205.23c3.94,2.23,7,8.1,6.8,13.1l-4.87,131.89C421.69,355.22,418.35,357.47,414.41,355.23Z"/><path class="cls-5" d="M410.07,234.55,350,200.46c-2.86-1.62-5.07-5.88-4.94-9.52h0c.14-3.63,2.56-5.26,5.43-3.64l60.1,34.09c2.87,1.62,5.08,5.88,4.94,9.52h0C415.36,234.54,412.93,236.17,410.07,234.55Z"/><polygon class="cls-4" points="414.41 260.34 345.92 221.5 346.3 211.09 414.79 249.93 414.41 260.34"/><polygon class="cls-4" points="413.52 284.21 345.03 245.37 345.42 234.95 413.91 273.79 413.52 284.21"/><polygon class="cls-4" points="412.64 308.07 344.15 269.23 344.54 258.82 413.03 297.66 412.64 308.07"/><polygon class="cls-4" points="376.57 310.66 343.32 291.8 343.7 281.38 376.96 300.24 376.57 310.66"/><path class="cls-9" d="M660.72,519.44l-207.4-125.3c-3.91-2.36-6.87-8.68-6.6-14.1l7-143c.26-5.42,3.66-7.9,7.57-5.54l207.4,125.31c3.92,2.36,6.87,8.67,6.6,14.1l-7.05,143C668,519.33,664.64,521.81,660.72,519.44Z"/><path class="cls-10" d="M655.54,387,470.88,275.46c-2.84-1.72-5-6.3-4.79-10.24h0c.19-3.94,2.65-5.75,5.5-4L656.24,372.75c2.85,1.72,5,6.31,4.8,10.25h0C660.85,386.94,658.38,388.74,655.54,387Z"/><path class="cls-5" d="M653,411l-72-43.5c-2.25-1.36-4-5-3.8-8.11h0c.16-3.12,2.11-4.54,4.36-3.18l72,43.5c2.25,1.36,4,5,3.79,8.11h0C657.19,410.93,655.24,412.36,653,411Z"/><path class="cls-5" d="M543.46,344.83l-72-43.5c-2.25-1.36-3.95-5-3.79-8.11h0c.15-3.12,2.1-4.54,4.35-3.18l72,43.5c2.25,1.36,4,5,3.8,8.1h0C547.66,344.76,545.71,346.19,543.46,344.83Z"/><polygon class="cls-4" points="655.79 439.34 575.64 390.92 576.2 379.62 656.35 428.05 655.79 439.34"/><polygon class="cls-4" points="546.26 373.17 466.11 324.74 466.67 313.45 546.82 361.88 546.26 373.17"/><polygon class="cls-4" points="654.51 465.21 574.36 416.79 574.92 405.5 655.07 453.92 654.51 465.21"/><polygon class="cls-4" points="544.99 399.04 464.84 350.62 465.39 339.33 545.54 387.75 544.99 399.04"/><polygon class="cls-4" points="496.68 395.05 463.63 375.09 464.19 363.79 497.23 383.76 496.68 395.05"/><polygon class="cls-4" points="606.2 461.22 573.16 441.26 573.71 429.96 606.76 449.93 606.2 461.22"/><path class="cls-11" d="M536.87,387.68l-102.48-59.2c-2.91-1.68-6.73.66-6.82,4.19l-2,73.48a7.89,7.89,0,0,0,3.85,7.13l11,6.32,0,0L526,469.16l0-.07,6.41,3.71c2.63,1.52,6.07-.6,6.16-3.78l2-74.36A7.73,7.73,0,0,0,536.87,387.68Z"/><path class="cls-4" d="M515.45,481.65l-103-59.52a7.9,7.9,0,0,1-3.85-7.14l2-73.47c.1-3.53,3.91-5.87,6.82-4.19l102.48,59.2a7.73,7.73,0,0,1,3.77,7l-2,74.36C521.52,481.05,518.08,483.17,515.45,481.65Z"/><path class="cls-12" d="M423.33,428.49l15-16.34c3.53-3.86,9.52-3,11.41,1.54l12.56,30.47,16.31-22.82c3.42-4.78,10.42-4.06,12.18,1.26L509.06,478Z"/><path class="cls-13" d="M450.24,380.05c-.15,5.18-3.31,7.62-7.06,5.45s-6.69-8.13-6.55-13.31,3.31-7.63,7.06-5.46S450.38,374.86,450.24,380.05Z"/><ellipse class="cls-2" cx="68.03" cy="445.98" rx="17.7" ry="30.65" transform="translate(-378.31 511.58) rotate(-89.69)"/><path class="cls-8" d="M60.06,432l-13.12,2.67-1.77,4.56c-.42,3.26-.4,5,1.77,6.73,1.82,1.44,5.53.33,7.47-.58l8.43-5.07c6.25-3.44,5.78-6,5.11-8.1h0C67,429.87,64.06,430.42,60.06,432Z"/><path class="cls-8" d="M87.94,448.18l-12.69-4.29-3.82,3c-2,2.61-2.86,4.13-1.86,6.71.85,2.16,4.62,3.07,6.75,3.26l9.84-.14c7.13.17,8-2.27,8.48-4.43h0C95,449.79,92.19,448.81,87.94,448.18Z"/><path class="cls-14" d="M43.13,285.51C36,296.36,32.81,310.21,30,322.73c-.61,2.7-.84,4.31-.12,7,2.39,8.8,5.09,17,6.12,26.21.52,4.62,7.85,4.68,7.32,0A122.67,122.67,0,0,0,38,330.82c-.51-1.53-1.07-3.05-1.65-4.56.53,1.39-.18,2.4.09,1.17.18-.77.34-1.55.51-2.32,2.7-12.07,5.62-25.47,12.51-35.91,2.6-3.94-3.73-7.61-6.32-3.69Z"/><path class="cls-15" d="M41.07,288.39c-4.85,8.43-8.35,22.69-11.54,34.24-1.21,3.18-.45,6.07,1.57,5.94l6.74.93c1.66-.11,4.82-3.7,5.6-6.37L52,293.78c1.39-4.78.36-8.89-2.37-9.5l-.63-.1C48.51,282.42,44.71,282.4,41.07,288.39Z"/><path class="cls-16" d="M63.7,341.86,29.9,361.38a2.49,2.49,0,0,1-3.73-2.15V335.69a2.47,2.47,0,0,1,1.24-2.15L61.22,314a2.48,2.48,0,0,1,3.72,2.15v23.54A2.47,2.47,0,0,1,63.7,341.86Z"/><path class="cls-4" d="M51,335.21a9.49,9.49,0,0,1-4.31,7.43c-2.37,1.37-4.3.27-4.3-2.46a9.5,9.5,0,0,1,4.3-7.42C49,331.39,51,332.48,51,335.21Z"/><path class="cls-14" d="M45.41,357,43,358.14a3.78,3.78,0,0,1-5-1.88h0a3.78,3.78,0,0,1,1.88-5l2.46-1.11a3.78,3.78,0,0,1,5,1.88h0A3.79,3.79,0,0,1,45.41,357Z"/><path class="cls-17" d="M73.9,261.82l.06,1.39s.18,4.16-3.93,2-4-7.35-4-7.35S69.18,257.5,73.9,261.82Z"/><path class="cls-18" d="M70,265.34c5.35,2.78,5.16-2.08,5.16-2.08l0,0-.16-1.66c-6-5.12-9.76-4.88-9.76-4.88A9,9,0,0,0,70,265.34Zm-3.74-7.28s3-.16,7.61,3.82l0,1.19s.14,3.62-3.84,1.55A7.45,7.45,0,0,1,66.27,258.06Z"/><polygon class="cls-18" points="77.17 264.19 73.99 262.74 73.82 260.94 77 262.39 77.17 264.19"/><path class="cls-18" d="M65.55,258.12l-.56-.25a1.28,1.28,0,0,1-.63-1h0c0-.39.18-.59.49-.45l.56.26a1.28,1.28,0,0,1,.63,1h0C66.08,258.06,65.86,258.26,65.55,258.12Z"/><path class="cls-18" d="M86.12,267.51l-.57-.26a1.29,1.29,0,0,1-.62-.95h0c0-.39.18-.59.49-.45l.56.25a1.28,1.28,0,0,1,.63,1h0C86.64,267.45,86.43,267.65,86.12,267.51Z"/><path class="cls-8" d="M85.66,266s-4.19-3.89-9.67-4l.16,1.66h0a9.85,9.85,0,0,0,6,7.2C87.52,273,85.66,266,85.66,266Zm-3.65,4a7.31,7.31,0,0,1-4.5-5.35l-.2-1.27a12.7,12.7,0,0,1,7.55,3.1S85.94,271.6,82,270.06Z"/><path class="cls-8" d="M78.25,265.63h0c-.14-.16-.18-.36-.1-.45l.95-1.05c.09-.09.26,0,.39.13h0c.13.15.18.36.09.45l-1,1C78.55,265.84,78.38,265.79,78.25,265.63Z"/><path class="cls-19" d="M66.87,260.22h0c-.13-.16-.17-.36-.09-.45l1-1c.08-.09.26,0,.39.12h0c.13.16.17.36.09.45l-.95,1C67.18,260.43,67,260.37,66.87,260.22Z"/><path class="cls-8" d="M65.67,367.92c4.87,14.27,5.32,29.62,4.86,44.56-.34,11.13-2.1,22.36-1.82,33.5.18,7.3,11.55,7.33,11.37,0-.29-11.45,1.53-23,1.85-34.43.42-15.57-.23-31.79-5.29-46.65-2.35-6.89-13.34-3.93-11,3Z"/><path class="cls-8" d="M42.8,355.11c2.55,9.27,3.7,18.83,4.63,28.37.55,5.64,1.22,11,.62,16.65-1.19,11.32-3.3,22.85-3.22,34.25.05,7.32,11.42,7.34,11.37,0-.08-11.57,2.08-23.27,3.28-34.76.6-5.78-.21-11.44-.79-17.23-1-10.17-2.21-20.43-4.93-30.3-1.94-7-12.91-4.06-11,3Z"/><path class="cls-8" d="M52.12,370.14h0c1.05,1.18-3.46-4.55-2.11-3.73,2.81,1.7,18.59,12.42,21.88,12.48,4,.06,1.65-3.77,4.61-6.42,2.8-2.52,3.46-6.6,3.73-10.36a5,5,0,0,0-2.56-5.51c-7-5.31-20.8-18.45-30.6-14.25C35.75,347.21,47.09,364.51,52.12,370.14Z"/><path class="cls-20" d="M43.89,286.13c-2.08,2.68-1.83,4.33-1.73,8a8.16,8.16,0,0,0,6,7.63l35.15,9.85s2-13.52-4.92-17.59c-3.73-2.19-9.52-5.7-14.08-8.47C57.59,281.47,48.68,280,43.89,286.13Z"/><path class="cls-14" d="M59.92,285.67l3-13.25L71,277.86l-2.43,12.07C68.3,291.88,59.33,290.17,59.92,285.67Z"/><path class="cls-14" d="M64.82,253.1s-8.1-5.64-8.18,8.08a23.93,23.93,0,0,0,13.57,21.53c4.87,2.31,10.83-.66,11.1-5.41,1.16-6.92,1.17-13.4-1.1-19,.32-5.73-3.62-3.69-10.43-4.06Z"/><path class="cls-21" d="M60.19,279.72s-9.37-3.48-8.48-16.66c1-14.27,14.08-13,21.38-13.74,3.23-.31,5.47-.78,8.78,2.17,3,2.69.19,8.71-4.12,9.1-1.71.16-.93,4.76-1.27,6.35-.62,2.81-2.37,4.18-3,6.91-.61,2.57-4.41,6.62-6.88,6.9C62.18,281.26,60.19,279.72,60.19,279.72Z"/><path class="cls-20" d="M42,349.67c-2.23-.87-1.7-39.33.31-60.57l39.57,18.83c-.2,18.08-2.48,32.35-.32,54.38Z"/><path class="cls-20" d="M68.39,366.24c-9.77-3.56-19.09-7.46-24.56-14.17-2.68-1.56-2.34-4.29.76-6.08h0c3.1-1.79,7.84-2,10.52-.44l24.56,14.18c2.69,1.55,2.35,4.29-.75,6.08h0C75.81,367.6,71.08,367.8,68.39,366.24Z"/><path class="cls-20" d="M81.91,307.93l-6.52-3.11c-.27,17.63-2.43,31.79-.3,53.43l-.11,0c0,1.23-.82,2.53-2.57,3.53h0c-3.1,1.8-7.84,2-10.52.44a110.16,110.16,0,0,1-13.38-5.65c5.4,4.14,12.51,7,19.88,9.71,2.69,1.56,7.42,1.36,10.53-.43h0c1.74-1,2.61-2.31,2.56-3.53l.11,0C79.43,340.28,81.71,326,81.91,307.93Z"/><path class="cls-8" d="M85.9,267.94,73.81,269.1a.79.79,0,0,1-.86-.7h0a.79.79,0,0,1,.71-.86l12.09-1.16a.79.79,0,0,1,.86.71h0A.78.78,0,0,1,85.9,267.94Z"/><path class="cls-22" d="M73.78,291.28c-9.08-1.37-15.21,4.34-17.38-8.73h0a2.89,2.89,0,0,1,3.92.86c1.56,2.25,4.87,3.67,8.53,3.22a2.87,2.87,0,0,1,2.77,1.3Z"/><path class="cls-14" d="M75.27,303.11c.62,7.56,1.82,14.48,5,21.42,2.27,5,4.61,12.12,9.53,15.27,11.11,7.1,22.95-11.08,28.2-18,2.85-3.75-3.5-7.4-6.31-3.69-3,3.91-14,21.08-19.61,13.68-6-7.91-8.69-19-9.48-28.68-.38-4.66-7.7-4.7-7.32,0Z"/><path class="cls-4" d="M71.6,303c2.21,18.71,8.11,30.61,16.28,36.66,4.3,2.38,8.32-4.41,6.67-8.5-8.13-7.24-11-18.52-11.76-31.4a5.9,5.9,0,0,0-7-3.27h0A5.5,5.5,0,0,0,71.6,303Z"/><rect class="cls-14" x="108.45" y="311.99" width="10.54" height="14.86" rx="4.59" transform="translate(2.58 639.75) rotate(-141.27)"/><path class="cls-21" d="M68.82,275c-.45.33-1.45,9.87,6.57,8.32s6.4-9.57,6.4-9.57-6.36,1.66-8.13-6.24S68.82,275,68.82,275Z"/><path class="cls-14" d="M75.66,271.08c.19,2.26-1,4.2-2.58,4.34a1.8,1.8,0,0,1-.52,0c-1.4-.22-2.58-1.8-2.76-3.81-.19-2.26,1-4.2,2.58-4.34S75.46,268.83,75.66,271.08Z"/><path class="cls-16" d="M646.08,349.57l-.46-.27c-1.66-.94-3.57.4-4.26,3l-8.67,32.43L581,355.24l8.68-32.43c.69-2.58-.1-5.46-1.75-6.4l-.47-.27c-1.65-.94-3.56.4-4.25,3l-9.38,35.08h0l-.92,3.41h0l-11.23,42h0l-.67,2.52L549.54,445h0l0,.17L537,492.09l-.47,1.76h0l-11.23,42h0l-.92,3.41h0l-11.75,44c-.69,2.58.1,5.46,1.75,6.4l.47.27c1.65.94,3.56-.4,4.25-3l11.05-41.3,51.68,29.46-11,41.31c-.69,2.58.09,5.46,1.74,6.4l.47.26c1.65,1,3.57-.4,4.26-3L647.83,356C648.52,353.39,647.73,350.51,646.08,349.57Zm-15.72,43.84-9.82,36.71-51.68-29.46L578.68,364Zm-22,82.13-51.69-29.47,9.82-36.71,51.68,29.47ZM596.25,521l-51.68-29.47,9.82-36.71,51.68,29.47Zm-63.82,15.94,9.81-36.71,51.69,29.47-9.82,36.71Z"/><ellipse class="cls-2" cx="158.26" cy="363.18" rx="16.12" ry="27.16" transform="translate(-217.24 489.44) rotate(-85.04)"/><path class="cls-8" d="M133.71,167.66a3.44,3.44,0,0,0-2-4.66c-2.34-.83-5.25-.9-6.52,3-1.45,4.41-4.84,12.81-7.13,18.4a1.9,1.9,0,0,0,3.1,2.06,9.84,9.84,0,0,0,2.79-5.14s-1.28,3.59-2.62,6.6a1.89,1.89,0,0,0,2.41,2.55c2.74-1.08,5.76-3.25,5.83-7.58C129.65,177.53,132.1,171.23,133.71,167.66Z"/><path class="cls-23" d="M136.92,168.38c-1.19,1.83-3.08,2.71-4.22,2s-1.1-2.83.09-4.66,3.09-2.71,4.23-2S138.11,166.55,136.92,168.38Z"/><path class="cls-14" d="M159.36,231.54a6.79,6.79,0,0,1-2.18.83c-1.82.26-3.79-.84-5.6-1.91a1.47,1.47,0,0,1-.46-.36,1.34,1.34,0,0,1-.11-1.17c.66-2.22,1.72-2.17,3.25-3.45.69-.58,1.3-1.26,2-1.85a21,21,0,0,1,3.51-2.29h0c1.48-.82,6.87-3.65,8,.4a4.16,4.16,0,0,1-.54,4,11,11,0,0,1-3,3A43.54,43.54,0,0,1,159.36,231.54Z"/><path class="cls-14" d="M151.7,227.64a16.62,16.62,0,0,1,1.56-3.62,5.63,5.63,0,0,1,2.67-2.2c2.13-.85,5.68-2.06,6.86-1.24,1.52,1,0,2.82-1,3.91-1.89,2.16-5.07,3.68-7.64,4.65a1,1,0,0,1-1-.18c-.11.23.84-.39.74-.15C153.28,230.28,151.12,229.1,151.7,227.64Z"/><polygon class="cls-24" points="152.23 226.91 149.72 229.54 154.59 235.25 157.47 232.33 152.23 226.91"/><path class="cls-8" d="M169.69,354.76l-11.38-8.67L151.67,345c-2.19,8.63-1.2,7.59,1.32,9.8l9.91,6.17c5.21,2.49,6.87,2.8,9.9,1.47h0C174.64,360.45,172.9,357.91,169.69,354.76Z"/><path class="cls-8" d="M157,363l-11.38-8.68-6.64-1.13c-2.19,8.64-1.2,7.59,1.32,9.8l9.91,6.17c5.21,2.5,6.87,2.81,9.9,1.48h0C161.9,368.71,160.16,366.17,157,363Z"/><path class="cls-4" d="M137.44,203a10.64,10.64,0,0,1,3.43-2.29A33.11,33.11,0,0,1,145,199a25.27,25.27,0,0,1,8.83-1.38c1.77.06,1.77-2.69,0-2.74a27.49,27.49,0,0,0-9.85,1.57,40.25,40.25,0,0,0-4.59,2,11.89,11.89,0,0,0-3.84,2.65c-1.15,1.33.79,3.28,1.94,1.94Z"/><path class="cls-10" d="M159.3,201.17a289.66,289.66,0,0,0,6.26,43.67c1.57,6.89,12.18,4,10.6-2.88a270.41,270.41,0,0,1-5.88-40.74c-.51-7-11.5-7.11-11-.05Z"/><path class="cls-14" d="M157,256.64c.43,30-1.14,59.3-6.15,88.83-1.17,6.91,9.41,9.88,10.59,2.92,5.18-30.51,7-60.79,6.55-91.75-.1-7.07-11.09-7.09-11,0Z"/><path class="cls-14" d="M142.6,265.18c-1.72,29.88-4.37,59.78-4.42,89.72,0,7.07,11,7.08,11,0,.05-29.94,2.71-59.84,4.42-89.72.41-7.06-10.58-7-11,0Z"/><path class="cls-10" d="M131.89,268.58c1.11,15.44,11,17,21,11.24s15.5-18.85,15.5-30.35c0,0-5.54-17.07-15.5-11.32S130.6,250.66,131.89,268.58Z"/><path class="cls-10" d="M165.86,204.8s6.6,10.37,5.85,16.62c-.48,4-3.36,8.46-3.78,9.74-3.43,10.43-1.53,13.59-1.9,16.47,0,0-2.29,9.92-26.78.55L129,218Z"/><path class="cls-10" d="M130.78,224.58a3.28,3.28,0,0,1-1.13-2c-.62-5.38-3.58-7.83,2.28-17.05.94-1.48,13.76-8.13,23.4-9.87a10.28,10.28,0,0,1,11.17,6.11,54.33,54.33,0,0,1,2.17,7.59c.46,9.89-3.92-3.1-4.62,2.36,0-.13.06-.26.08-.39s-1.2,9.22-2.1,16.37c-.56,4.46-1,7.68-1,8.13v.06L144.32,249l-8.8-15.88h0Z"/><path class="cls-14" d="M154.73,195.49s8.35,8.63,1.11,14.74-19.59-7.55-19.59-7.55C142.73,198.62,149,195.87,154.73,195.49Z"/><path class="cls-10" d="M168.36,249.47l5.92,40.69a2.38,2.38,0,0,1-.5,1.57c-2.28,3-13.78,10.93-38.9,6.49-2.9-.51-3.37-.65-3.37-2.55l1.47-32.4,14.79-.15Z"/><path class="cls-14" d="M151,200.47l4-15.39-9.64,3.06-3.24,12.56C141.36,202.74,148.06,208.32,151,200.47Z"/><path class="cls-4" d="M155.05,196.68a22.21,22.21,0,0,0,.88,4.54,30.56,30.56,0,0,1,1,5.48,1.79,1.79,0,0,1,0,.4c0,.08.11-.25,0-.06a6.58,6.58,0,0,1-1.73,1.51,8.18,8.18,0,0,1-4.19,1.1c-2.68,0-4.71-1.5-6.88-2.85-1-.6-1.91-1.19-2.87-1.77-1.4-.85-2.27-2.27-3.49-3.34s-3.28.78-1.94,1.94,2.34,2.71,3.9,3.68c.81.51,1.64,1,2.45,1.51,2.51,1.55,4.85,3.23,7.87,3.52,3.29.32,7.25-.92,9.16-3.77,1.08-1.63.29-4-.06-5.8-.26-1.33-.56-2.65-.85-4-.1-.48-.21-1-.3-1.46,0-.19-.08-.38-.11-.57s0,.29,0-.08a1.37,1.37,0,0,0-2.74,0Z"/><rect class="cls-14" x="141.31" y="164.24" width="19.79" height="32.03" rx="8.39" transform="matrix(-0.96, 0.29, -0.29, -0.96, 348.47, 308.47)"/><path class="cls-25" d="M152.61,196.26a13.26,13.26,0,0,1-5.94-.69s2.71,2.9,5.7,3.2Z"/><path class="cls-8" d="M148.47,169.29s-2.51,12.2-6,15.89l1.14,2.21a8.24,8.24,0,0,1,.18,7.14l-.42.94s-22.7-12.56-8.32-28.34c9.73-10.67,25.4-5.15,25.39,6.25Z"/><path class="cls-14" d="M142.48,191.29a2,2,0,0,0,3-1.93,4.83,4.83,0,0,0-2.95-4.18,2,2,0,0,0-3,1.93A4.81,4.81,0,0,0,142.48,191.29Z"/><path class="cls-14" d="M182.19,254l-3.69,2.36c-1.81,1.15-3.94,1.06-4.74-.2l-.57-.88c-.8-1.25,0-3.23,1.83-4.38l3.69-2.35c1.8-1.15,3.94-1.06,4.74.19l.56.88C184.81,250.84,184,252.81,182.19,254Z"/><path class="cls-26" d="M151.21,250.06v-.9l1.15.45.25-.57,28.94-16.71a1.49,1.49,0,0,1,1.36.06l12.46,7.19v-.2l2.31.92v1h0a.47.47,0,0,1-.22.25l-30.11,17.38a1.51,1.51,0,0,1-1.37-.06l-14.43-8.33a.55.55,0,0,1-.33-.44Z"/><path class="cls-27" d="M167.36,257.94l30.11-17.38c.35-.21.3-.56-.1-.79l-14.43-8.33a1.49,1.49,0,0,0-1.36-.06l-30.12,17.39c-.35.2-.3.55.1.78L166,257.88A1.51,1.51,0,0,0,167.36,257.94Z"/><path class="cls-26" d="M165.3,246.74l7.29-4.2c.08,0,.07-.14,0-.2l-3.49-2a.39.39,0,0,0-.33,0l-7.29,4.21c-.08,0-.07.14,0,.19l3.49,2A.35.35,0,0,0,165.3,246.74Z"/><path class="cls-4" d="M168.12,238.38a3.29,3.29,0,0,1,1.39-2.1l29.9-17a.76.76,0,0,1,.66-.11h0a.48.48,0,0,1,.16.12l1,1-.9-.08-2.84,18.38a3.25,3.25,0,0,1-1.39,2.09L167.82,256.8l-.91,1-.12.26c-.57.12-1.94-.85-1.94-.85Z"/><path class="cls-8" d="M167.25,258.83l29.9-17a3.25,3.25,0,0,0,1.39-2.1l2.87-18.57c.12-.79-.3-1.14-.94-.77l-29.9,17a3.29,3.29,0,0,0-1.39,2.09l-2.87,18.58C166.19,258.85,166.61,259.2,167.25,258.83Z"/><path class="cls-4" d="M183.14,240.85c-.15,1,.74,1.21,2,.49a5.31,5.31,0,0,0,2.55-3.08c.16-1-.74-1.21-2-.49A5.35,5.35,0,0,0,183.14,240.85Z"/><path class="cls-14" d="M128.2,209.66c-3.07,7.09-7.09,14.39-7.91,22.19-.6,5.7-1.12,15,3,19.5,4,4.29,10.55,3.55,15.68,2.47,3.18-.66,6.27-1.67,9.37-2.63,1.36-.42,2.72-.82,4.09-1.22.57-.16,2-.22,1.38-.39,5.14,1.31,7.33-6.64,2.19-7.94-3.8-1-8.16,1.09-11.72,2.19s-10.27,4.06-13.91,2.43c-3-1.37-2.28-10.4-2-13.51.68-6.6,4.28-12.95,6.87-18.93,2.09-4.81-5-9-7.11-4.16Z"/><path class="cls-10" d="M126.47,208.76c-6,11.91-6.67,24.76-6.68,37.52,0,5.75,11,6,11,.24,0-12,.55-23.91,6.23-35.16,2.69-5.3-7.88-7.86-10.54-2.6Z"/><rect class="cls-14" x="155.02" y="238.61" width="8.63" height="14" rx="3.95" transform="translate(437.89 155.52) rotate(105.05)"/><path class="cls-8" d="M307,291l-62.73-36.22c-3.49-2-6.23-7.35-6.12-11.92l3.23-131.07c.11-4.57,3-6.63,6.53-4.62l62.72,36.22c3.5,2,6.24,7.35,6.12,11.92L313.5,286.42C313.38,291,310.46,293.06,307,291Z"/><path class="cls-28" d="M267.86,152.89l-13.49-7.78c-2.73-1.58-4.88-5.76-4.79-9.34h0c.09-3.58,2.38-5.2,5.11-3.62l13.49,7.79c2.74,1.58,4.88,5.76,4.8,9.34h0C272.89,152.85,270.6,154.47,267.86,152.89Z"/><path class="cls-4" d="M285.89,186.11l-20.34-11.74c-2.16-1.25-3.86-4.56-3.79-7.39h0c.07-2.83,1.88-4.11,4-2.86l20.34,11.74c2.16,1.25,3.86,4.56,3.79,7.39h0C289.86,186.08,288.05,187.36,285.89,186.11Z"/><path class="cls-29" d="M302.35,219.43,265,197.85c-2.16-1.25-3.86-4.56-3.79-7.39h0c.07-2.83,1.88-4.11,4-2.86l37.38,21.58c2.17,1.25,3.86,4.56,3.8,7.39h0C306.33,219.4,304.51,220.68,302.35,219.43Z"/><path class="cls-4" d="M284.73,233.08l-20.34-11.74c-2.16-1.25-3.86-4.56-3.79-7.39h0c.07-2.83,1.88-4.11,4-2.86L285,222.83c2.17,1.25,3.87,4.56,3.8,7.39h0C288.71,233.05,286.89,234.33,284.73,233.08Z"/><path class="cls-28" d="M266.64,245.15l-13.93-8c-2.16-1.25-3.86-4.55-3.79-7.38h0c.07-2.83,1.88-4.11,4.05-2.86l13.92,8c2.17,1.25,3.87,4.55,3.8,7.38h0C270.62,245.12,268.8,246.4,266.64,245.15Z"/><path class="cls-8" d="M68.33,231.25a8.83,8.83,0,0,1-8,0c-2.22-1.28-2.23-3.36,0-4.63a8.86,8.86,0,0,1,8,0C70.53,227.9,70.54,230,68.33,231.25Z"/><polygon class="cls-5" points="72.36 225.46 56.22 225.72 56.22 208.56 72.36 208.56 72.36 225.46"/><path class="cls-5" d="M70,228.92a12.54,12.54,0,0,1-11.41,0c-3.16-1.82-3.16-4.79,0-6.62a12.54,12.54,0,0,1,11.41,0C73.15,224.12,73.15,227.09,70,228.92Z"/><path class="cls-8" d="M72.38,213.23,72,213a17.14,17.14,0,0,0-15.53,0l-.26.16v8.62l.31.19c4.3,2.48,11.26,2.49,15.53,0l.3-.18Z"/><path class="cls-5" d="M72.06,220.32c-4.28,2.47-11.23,2.45-15.53,0s-4.33-6.5-.05-9,11.22-2.45,15.53,0S76.33,217.85,72.06,220.32Z"/><rect class="cls-5" x="53.29" y="211.96" width="21.96" height="4.05"/><path class="cls-4" d="M72.06,216.46a17.17,17.17,0,0,1-15.53,0c-4.31-2.49-4.33-6.5-.05-9S67.7,205,72,207.49,76.33,214,72.06,216.46Z"/><path class="cls-30" d="M84,188.63c0-10-8.84-18.15-19.74-18.15s-19.75,8.13-19.75,18.15a17.54,17.54,0,0,0,6.84,13.73,17.06,17.06,0,0,1,3.82,7.86,6.29,6.29,0,0,0,4.12,4.65,14.14,14.14,0,0,0,9.82.13A6.16,6.16,0,0,0,73,210.45a16.35,16.35,0,0,1,3.8-7.71l.18-.22A17.55,17.55,0,0,0,84,188.63Z"/><path class="cls-31" d="M60.19,184.28c0,3.57-2.45,7.21-5.48,8.13s-5.47-1.22-5.47-4.78,2.45-7.21,5.47-8.14S60.19,180.71,60.19,184.28Z"/><path class="cls-2" d="M238.45,401.11l126.62,73.11c2.53,1.45,6.93,1.27,9.84-.41L404,457c2.92-1.68,3.23-4.23.71-5.69l-126.63-73.1c-2.52-1.46-6.92-1.28-9.84.41l-29.07,16.78C236.24,397.11,235.92,399.65,238.45,401.11Z"/><path class="cls-32" d="M238.45,391.77l126.62,73.11c2.53,1.46,6.93,1.27,9.84-.41L404,447.69c2.92-1.68,3.23-4.23.71-5.68L278.06,368.9c-2.52-1.46-6.92-1.28-9.84.41l-29.07,16.78C236.24,387.77,235.92,390.32,238.45,391.77Z"/><polygon class="cls-7" points="272.58 348.87 248 334.63 272.52 320.47 297.12 334.67 272.58 348.87"/><polygon class="cls-33" points="272.6 401.09 248 386.89 248 334.63 272.6 348.83 272.6 401.09"/><polygon class="cls-34" points="272.51 401.09 297.63 386.89 297.63 334.63 272.51 348.83 272.51 401.09"/><polygon class="cls-35" points="305.45 336.15 280.56 322.02 305.29 307.83 329.9 322.04 305.45 336.15"/><polygon class="cls-36" points="280.77 321.99 280.77 353.09 280.77 405.36 305.37 419.56 305.37 336.2 280.77 321.99"/><polygon class="cls-34" points="305.45 336.2 305.44 419.56 330.14 405.36 330.14 321.99 305.45 336.2"/><polygon class="cls-37" points="336.72 386.85 312.28 372.63 336.73 358.51 361.33 372.72 336.72 386.85"/><polygon class="cls-38" points="336.79 439.14 312.41 424.93 312.41 372.67 336.79 386.88 336.79 439.14"/><polygon class="cls-34" points="336.79 439.14 361.17 424.93 361.17 372.67 336.79 386.88 336.79 439.14"/><polygon class="cls-4" points="369.73 426.23 345.13 412.02 369.58 397.91 394.18 412.11 369.73 426.23"/><polygon class="cls-34" points="369.3 459.45 394.42 444.39 394.42 412.08 369.3 426.29 369.3 459.45"/><polygon class="cls-20" points="369.77 459.39 369.77 426.23 345.17 412.02 345.17 445.18 369.77 459.39"/><path class="cls-14" d="M661.57,479.43c-1.13,6-9.49,40.5,6.06,38.34,4.45-.62,8.06-4.59,10.8-7.85a91.52,91.52,0,0,0,9.74-14.38c2.38-4.28-4.18-8.11-6.56-3.83a89,89,0,0,1-7.23,11.19,43.08,43.08,0,0,1-4.29,4.87,16,16,0,0,1-3.07,2.37c-1,.57.14-.05.08.31,0,.06.08.59-.09-.21s.08.26-.17-.46a12.18,12.18,0,0,1-.53-2.66c-.92-8.44,1.05-17.44,2.59-25.67.89-4.78-6.43-6.83-7.33-2Z"/><path class="cls-39" d="M651,462.5c.66,2.95,0,5.62-1.57,5.95s-3.28-1.78-3.94-4.73.05-5.63,1.57-6S650.38,459.54,651,462.5Z"/><rect class="cls-40" x="664.36" y="459.66" width="8.74" height="28.14" rx="4.16" transform="translate(1141.18 1143.37) rotate(-160.52)"/><rect class="cls-14" x="658.14" y="465.6" width="10.31" height="17.31" rx="5.11" transform="translate(1160.12 1120.81) rotate(-163.1)"/><rect class="cls-14" x="669.87" y="473.03" width="5.15" height="5.35" rx="1.89" transform="translate(1177.61 1126.3) rotate(-163.1)"/><path class="cls-28" d="M673.61,457.73c.2-.07,6.38-1.13,6.61-1.13a2.59,2.59,0,0,1,2.6.77,8.29,8.29,0,0,1,2.35,7.12c-.3,1.47-1.14,2.25-2.17,2.24-.2.08-6.38,1.14-6.61,1.14a2.6,2.6,0,0,1-2.6-.78,8.27,8.27,0,0,1-2.35-7.11C671.74,458.51,672.58,457.72,673.61,457.73Z"/><path class="cls-28" d="M665.38,457c.3-.12,9.44-1.69,9.78-1.68,1.11-.42,2.49-.07,3.85,1.14A12.25,12.25,0,0,1,682.48,467c-.45,2.18-1.69,3.34-3.2,3.32-.31.12-9.44,1.68-9.78,1.68-1.12.41-2.5.07-3.85-1.14a12.25,12.25,0,0,1-3.48-10.53C662.62,458.14,663.86,457,665.38,457Z"/><path class="cls-6" d="M665.38,457l-22.82-5.19,6.84,34.16,22.72-14.85C673.19,464.47,670.72,457.12,665.38,457Z"/><path class="cls-24" d="M645.32,465.54l4,18.39s22.89-13.84,22.93-14.34a17.65,17.65,0,0,0-.91-7.41Z"/><path class="cls-28" d="M637.85,457.42c-2.66,7.55-.61,18.59,4.58,24.68s11.58,4.9,14.25-2.65.62-18.59-4.58-24.67S640.52,449.88,637.85,457.42Z"/><path class="cls-28" d="M635.17,458c-2.67,7.55-.62,18.59,4.58,24.68s11.58,4.9,14.25-2.65.62-18.59-4.58-24.67S637.84,450.49,635.17,458Z"/><path class="cls-4" d="M637,458.4c-2.48,7-.58,17.24,4.24,22.88s10.74,4.54,13.21-2.45.58-17.24-4.24-22.88S639.45,451.4,637,458.4Z"/><path class="cls-6" d="M654.67,464.9a23.25,23.25,0,0,0-4.48-8.93c-4.82-5.64-10.73-4.54-13.21,2.45-.71,2-1.32,4.31-1,9.6C641,460.8,648.45,461.43,654.67,464.9Z"/><path class="cls-24" d="M654.86,473.52c1.08-3,.74-7.57-1.59-10.1a5.27,5.27,0,0,0-2.74-1.65h-.64l-.43,0-4.18,0c-.16,0-.46-.48-.61-.48h-.14v.88a3.73,3.73,0,0,0-2.33,2.62c-1.08,3.05.3,7.63,2.62,10.16a5.05,5.05,0,0,0,3.71,1.68v0h-.32c.11,0,.06,0,.18-.05l3.63-.36c.31,0,.52,0,.81,0h-.3v-.19A4,4,0,0,0,654.86,473.52Z"/><path class="cls-32" d="M652.52,459.44l-6.8,1c-.14,0-.29-.14-.43-.14h-.76v.57c-1,.27-1.41,1.06-1.91,2.48-1.08,3.05.24,7.47,2.34,9.93a4.49,4.49,0,0,0,3.57,1.54h-.3c.11,0,.07,0,.18-.07s6.88-1.36,7.15-1.46A27.25,27.25,0,0,0,652.52,459.44Z"/><polygon class="cls-4" points="666.88 457.93 652.98 454.83 655.93 459.27 667.95 460.13 666.88 457.93"/><polygon class="cls-41" points="678.83 457.79 670.61 459.37 669.16 457.68 677.49 456.21 678.83 457.79"/><path class="cls-8" d="M681,639.47l11.55-8.8,6.73-1.15c2.23,8.76,1.22,7.7-1.34,9.94l-10.05,6.26c-5.29,2.53-7,2.85-10,1.5h0C676,645.24,677.77,642.67,681,639.47Z"/><path class="cls-8" d="M723.61,653.43l8.81-11.54,6.19-2.9c4.46,7.87,3.21,7.11,1.34,10l-8,8.7c-4.43,3.84-6,4.59-9.29,4.11h0C720.29,660.33,721.31,657.38,723.61,653.43Z"/><path class="cls-12" d="M687.77,474.46l-10.91,18.69c-1.87,6,11.57,10.64,13.55,5.85l8.91-18.86a6.46,6.46,0,0,0-3-8.14h0A6.46,6.46,0,0,0,687.77,474.46Z"/><path class="cls-42" d="M725.36,549.71a14,14,0,0,1,2.09,9.11c-1.68,14.62-.42,26.7,3.3,41.42,3.17,12.54,8.25,25,10.23,37.86,1.17,7.56-10.58,9.5-11.75,1.91-.8-5.19-2.51-10.28-4-15.31C723,616.83,720.69,609,718.71,601c-4.23-16.95-7.94-35.23-5.27-52.73,1.15-7.54,13-6.32,11.84,1.28Z"/><path class="cls-42" d="M702.16,548.37c-2.62,9.59-3.85,19.47-4.81,29.34-.57,5.8-1.35,11.44-.76,17.24,1.18,11.69,3.28,23.55,3.22,35.32,0,7.66-11.94,7.67-11.9,0,.06-12-2.13-24.06-3.29-36-.62-6.25.4-12.52,1-18.75,1-10.19,2.31-20.44,5-30.34,2-7.38,13.51-4.25,11.48,3.16Z"/><path class="cls-42" d="M699.38,564.11h0c1.1,1.23-3.62-4.76-2.21-3.91,3,1.78,19.47,13,22.91,13.07,4.16.07,1.74-3.95,4.83-6.72,2.93-2.63,3.63-6.91,3.91-10.84a5.21,5.21,0,0,0-2.68-5.78c-7.34-5.56-21.78-19.31-32-14.92C682.25,540.1,694.12,558.21,699.38,564.11Z"/><path class="cls-12" d="M691.7,476.15c-2.17,2.8-1.91,4.53-1.81,8.36a8.55,8.55,0,0,0,6.24,8l36.81,10.32s10.58-10.16,3.32-14.43c-3.91-2.29-18.44-10-23.21-12.86C706.05,471.27,696.73,469.67,691.7,476.15Z"/><path class="cls-12" d="M688.83,542.67c1.09,1.42,2.48-38.29.32-63.41L730.58,499c-.21,18.93.24,42.4-1.13,57.72C724.08,567,705.81,553.67,688.83,542.67Z"/><path class="cls-14" d="M707.83,479.93l-4.21-15.55,10.68,3,3.43,12.7C718.47,482.1,710.93,487.86,707.83,479.93Z"/><path class="cls-25" d="M706.84,476.84s4.38-2.24,4.4-2.29-1.5,3.19-3.67,4.44Z"/><rect class="cls-14" x="695.85" y="444.15" width="20.03" height="32.44" rx="8.5" transform="translate(92.24 -117.25) rotate(10.16)"/><path class="cls-43" d="M708.61,456.07c-3.42.8-7.44.79-10.6-1.27-3.43-2.24-4.94-8.05-1.43-10.15,1.9-1.14,6.24-1.6,9.91-2.24,10.4-1.84,19.73,5.28,17.76,16.29,0,0-1.88,12.27-9,15a2,2,0,0,1-2.66-1.79h0s4.09-3.79-.56-8.16c-1.07-1-1-2.79-.5-4.55A2.51,2.51,0,0,0,708.61,456.07Z"/><path class="cls-14" d="M716,470.41a2,2,0,0,1-3.22-1.58,4.89,4.89,0,0,1,2.46-4.56,2,2,0,0,1,3.22,1.58A4.88,4.88,0,0,1,716,470.41Z"/><path class="cls-14" d="M730.78,500.91c2.32,7.11,7.62,12.94,10.26,20,5,13.31,2.46,27.06-3.45,39.65-2.1,4.48,4.56,8.4,6.67,3.9,6.32-13.46,9.64-28.32,5.16-42.88a65.5,65.5,0,0,0-6.2-13.67c-1.68-2.91-4-5.84-5-9-1.54-4.7-9-2.69-7.45,2.06Z"/><path class="cls-12" d="M727.56,496.44l5.78,20.85c3,5.55,15.7-.85,13.64-5.62l-7.28-19.54a6.45,6.45,0,0,0-7.9-3.56h0A6.47,6.47,0,0,0,727.56,496.44Z"/><path class="cls-5" d="M456.18,521.73a11,11,0,0,1-10,0c-2.77-1.59-2.79-4.18,0-5.76a11.06,11.06,0,0,1,10,0C458.91,517.56,458.93,520.14,456.18,521.73Z"/><rect class="cls-5" x="444.1" y="507.5" width="14.13" height="11.34"/><path class="cls-5" d="M454.07,507.44v11.34h0a3.48,3.48,0,0,1-2.06,2.89,8.81,8.81,0,0,1-2.86,1,10.93,10.93,0,0,0,7.09-1,3.47,3.47,0,0,0,2.05-2.89h0V507.44Z"/><path class="cls-44" d="M456.18,510.39a11.06,11.06,0,0,1-10,0c-2.77-1.6-2.79-4.18,0-5.77a11,11,0,0,1,10,0C458.91,506.22,458.93,508.81,456.18,510.39Z"/><path class="cls-45" d="M455.34,509.83a9.12,9.12,0,0,1-8.25,0c-2.29-1.32-2.3-3.45,0-4.77a9.14,9.14,0,0,1,8.26,0C457.6,506.38,457.61,508.51,455.34,509.83Z"/><path class="cls-46" d="M455.32,507.11a9.14,9.14,0,0,0-8.26,0,3.7,3.7,0,0,0-1.42,1.34,3.78,3.78,0,0,0,1.45,1.37,9.12,9.12,0,0,0,8.25,0,3.64,3.64,0,0,0,1.42-1.35A3.82,3.82,0,0,0,455.32,507.11Z"/><path class="cls-47" d="M447.06,509.83a3.72,3.72,0,0,1-1.42-1.35,3.37,3.37,0,0,1,.68-.82,9,9,0,0,1,5.74.85,3.66,3.66,0,0,1,1.41,1.34,1.77,1.77,0,0,1,.25.64c-.34.08-.65.14-.92.18A9.07,9.07,0,0,1,447.06,509.83Z"/><path class="cls-48" d="M455.56,512.71c.55.3,1.12.56,1.65.89a2.17,2.17,0,0,1,.52.38c.11.11.07.07.12.17,0-.06,0-.24,0,0,.08,1.12.09,2.25.08,3.38q0,.81,0,1.62c0,.11,0,.23,0,.35s0,.11,0,0c0,.09,0,.12,0,.07s0,0,0,0,.13-.12.27-.08c-.13,0,.19.09,0,0-.33-.18-.53-.19-.93-.39l-.84-.43a.94.94,0,0,0-1.24.32.92.92,0,0,0,.32,1.24c.37.19.73.39,1.11.56a3.87,3.87,0,0,0,1.51.51,1.63,1.63,0,0,0,1.51-1.28,8.9,8.9,0,0,0,.1-1.93,33.34,33.34,0,0,0-.1-4.12c-.16-1.53-2-2.17-3.15-2.79s-1.94,1-.91,1.56Z"/><ellipse class="cls-2" cx="413.05" cy="645.06" rx="17.7" ry="30.65" transform="translate(-234.24 1054.6) rotate(-89.69)"/><ellipse class="cls-2" cx="706.84" cy="645.99" rx="17.7" ry="30.65" transform="translate(57.03 1349.32) rotate(-89.69)"/><path class="cls-16" d="M396.75,627l-7,8.73-1,5.79c1.55,2.91,2.57,4.31,5.33,4.46,2.33.13,4.71-2.93,5.77-4.79l3.94-9c3.11-6.43,1.25-8.24-.52-9.56h0C401.12,621.27,399.08,623.39,396.75,627Z"/><path class="cls-16" d="M427.34,640.4l-13.1,2.84-1.71,4.57c-.38,3.27-.34,5,1.85,6.71,1.84,1.42,5.54.26,7.47-.67l8.37-5.17c6.2-3.52,5.7-6.06,5-8.16h0C434.19,638.18,431.31,638.76,427.34,640.4Z"/><path class="cls-14" d="M388.15,484.59c-7.16,10.85-10.32,24.7-13.15,37.23-.61,2.7-.84,4.31-.13,6.95,2.39,8.81,5.1,17,6.13,26.21.52,4.63,7.84,4.68,7.32,0A122.72,122.72,0,0,0,383,529.91c-.51-1.54-1.07-3-1.66-4.56.54,1.38-.18,2.4.1,1.16.18-.77.34-1.54.51-2.32,2.7-12.07,5.62-25.46,12.51-35.9,2.6-4-3.74-7.61-6.32-3.7Z"/><path class="cls-16" d="M386.76,485.84c-4.62,6.44-8.05,19-11.36,28.64-1.2,2.58-.67,5.35,1.11,5.71l5.86,2.42c1.46.29,4.39-2.2,5.19-4.41l8.8-24.37c1.44-4,.72-7.89-1.65-9.08l.14-2.16C394.51,480.9,390.22,481.32,386.76,485.84Z"/><path class="cls-4" d="M396,534.3a9.48,9.48,0,0,1-4.31,7.42c-2.38,1.38-4.3.28-4.3-2.45a9.48,9.48,0,0,1,4.3-7.43C394.05,530.47,396,531.57,396,534.3Z"/><path class="cls-17" d="M418.92,460.91l.05,1.38s.18,4.17-3.92,2-4-7.35-4-7.35S414.2,456.58,418.92,460.91Z"/><path class="cls-18" d="M415,464.42c5.35,2.78,5.16-2.08,5.16-2.08l0,0-.16-1.65c-6-5.13-9.76-4.88-9.76-4.88A9,9,0,0,0,415,464.42Zm-3.74-7.28s3-.16,7.61,3.82l0,1.2s.14,3.61-3.84,1.54A7.45,7.45,0,0,1,411.29,457.14Z"/><polygon class="cls-18" points="422.19 463.27 419.01 461.82 418.83 460.02 422.01 461.47 422.19 463.27"/><path class="cls-18" d="M410.57,457.21,410,457a1.29,1.29,0,0,1-.62-1h0c0-.38.18-.59.49-.45l.56.26a1.28,1.28,0,0,1,.63,1h0C411.09,457.15,410.87,457.35,410.57,457.21Z"/><path class="cls-19" d="M411.89,459.3h0c-.13-.16-.17-.36-.09-.45l.95-1.05c.08-.09.26,0,.39.13h0c.13.15.17.36.09.45l-1,1C412.2,459.51,412,459.46,411.89,459.3Z"/><path class="cls-8" d="M410.69,567c4.86,14.28,5.31,29.62,4.86,44.56-.34,11.13-2.1,22.36-1.82,33.5.18,7.3,11.55,7.33,11.37,0-.29-11.44,1.53-23,1.84-34.42.43-15.57-.22-31.79-5.29-46.66-2.34-6.89-13.33-3.93-11,3Z"/><path class="cls-8" d="M387.82,554.19c2.55,9.27,3.7,18.83,4.63,28.38.55,5.64,1.21,11,.62,16.64-1.19,11.32-3.3,22.86-3.22,34.26,0,7.31,11.42,7.33,11.37,0-.08-11.58,2.08-23.27,3.27-34.76.6-5.79-.21-11.45-.78-17.23-1-10.17-2.21-20.43-4.93-30.31-1.94-7-12.91-4-11,3Z"/><path class="cls-8" d="M397.13,569.22h0c1.05,1.18-3.46-4.54-2.11-3.73,2.82,1.7,18.6,12.43,21.89,12.48,4,.07,1.65-3.77,4.6-6.42s3.47-6.6,3.74-10.35a6.4,6.4,0,0,0-.29-3.08,6.63,6.63,0,0,0-2.27-2.44c-7-5.31-20.8-18.45-30.6-14.24C380.77,546.29,392.11,563.59,397.13,569.22Z"/><path class="cls-5" d="M388.91,485.21c-2.08,2.68-1.83,4.34-1.73,8a8.14,8.14,0,0,0,6,7.63l35.15,9.86s2-13.52-4.92-17.6c-3.73-2.19-9.53-5.7-14.08-8.47C402.61,480.56,393.7,479,388.91,485.21Z"/><path class="cls-14" d="M404.93,484.76l3-13.25L416,477,413.56,489C413.32,491,404.35,489.26,404.93,484.76Z"/><path class="cls-14" d="M409.84,452.19s-8.1-5.64-8.18,8.07a23.91,23.91,0,0,0,13.56,21.53c4.88,2.32,10.84-.65,11.1-5.4,1.16-6.93,1.18-13.41-1.09-19,.32-5.73-3.62-3.69-10.43-4.06Z"/><path class="cls-16" d="M405.21,478.8s-9.37-3.48-8.48-16.66c1-14.27,14.08-13,21.37-13.74,3.23-.31,5.48-.77,8.79,2.18,3,2.68.19,8.71-4.12,9.1-1.71.15-.93,4.76-1.28,6.34-.61,2.81-2.36,4.18-3,6.91-.61,2.58-4.41,6.62-6.88,6.9C407.19,480.34,405.21,478.8,405.21,478.8Z"/><path class="cls-5" d="M387.05,548.75c-2.24-.86-1.7-39.32.31-60.56L426.93,507c-.2,18.08-2.49,32.35-.32,54.38Z"/><path class="cls-5" d="M413.41,565.33c-9.78-3.57-19.09-7.47-24.56-14.18-2.69-1.55-2.35-4.29.76-6.08h0c3.1-1.79,7.84-2,10.52-.43l24.56,14.17c2.69,1.56,2.35,4.29-.75,6.08h0C420.83,566.68,416.1,566.88,413.41,565.33Z"/><path class="cls-5" d="M426.93,507l-6.52-3.1c-.27,17.62-2.43,31.78-.3,53.42l-.11,0c0,1.22-.83,2.52-2.57,3.53h0c-3.1,1.79-7.84,2-10.52.43a111.75,111.75,0,0,1-13.38-5.64c5.39,4.13,12.5,7,19.88,9.71,2.69,1.55,7.42,1.35,10.53-.44h0c1.74-1,2.61-2.31,2.56-3.53l.11,0C424.44,539.36,426.73,525.09,426.93,507Z"/><path class="cls-4" d="M418.8,490.36c-9.08-1.36-15.21,4.35-17.38-8.73h0a2.9,2.9,0,0,1,3.92.86c1.56,2.25,4.87,3.67,8.53,3.22a2.88,2.88,0,0,1,2.77,1.3Z"/><path class="cls-14" d="M420.29,502.19c.62,7.57,1.82,14.49,5,21.42,2.27,5,4.6,12.13,9.53,15.27,11.11,7.1,22.95-11.08,28.2-18,2.85-3.75-3.5-7.4-6.32-3.69-3,3.92-13.95,21.09-19.61,13.68-6-7.91-8.68-19-9.47-28.68-.38-4.66-7.7-4.7-7.32,0Z"/><path class="cls-14" d="M420.68,470.17c.19,2.25-1,4.2-2.58,4.33a1.8,1.8,0,0,1-.52,0c-1.4-.22-2.59-1.8-2.76-3.81-.19-2.26,1-4.2,2.58-4.34S420.48,467.91,420.68,470.17Z"/><path class="cls-5" d="M416.58,502l4.69,19.4c2.61,5.21,14.5-.31,12.75-4.76l-6.12-18.24a6,6,0,0,0-7.18-3.52h0A6,6,0,0,0,416.58,502Z"/><path class="cls-16" d="M422.25,451.53a5.64,5.64,0,1,1-5.64-5.64A5.65,5.65,0,0,1,422.25,451.53Z"/><path class="cls-16" d="M428.61,450.89a5.64,5.64,0,1,1-5.64-5.64A5.64,5.64,0,0,1,428.61,450.89Z"/><path class="cls-16" d="M429.49,456.65a5.64,5.64,0,1,1-5.64-5.64A5.64,5.64,0,0,1,429.49,456.65Z"/><path class="cls-2" d="M359.26,502.83l0-12.17h0c0-2.4-1.45-4.7-4.42-6.42L245.2,420.7c-6.57-3.81-18.06-3.35-25.66,1L20.64,536.15c-3.95,2.28-6.06,5.16-6.26,7.94l0,0v.48c0,.13,0,.25,0,.38l.29,10.14h0c-1,3.1.3,6.24,4.09,8.44l109.67,63.54c3.29,1.9,7.8,2.74,12.44,2.56a34.31,34.31,0,0,0,3.49-.33,30,30,0,0,0,6.71-1.8,24.73,24.73,0,0,0,3-1.45L353,511.6c4-2.33,6.15-5.29,6.27-8.13h0C359.26,503.25,359.27,503,359.26,502.83Z"/><path class="cls-4" d="M.33,547,0,536l14.18,9.2s-4,10-4.44,9.63Z"/><path class="cls-4" d="M114.1,619,4.43,555.41c-6.57-3.8-5.74-10.43,1.86-14.81L205.2,426.17c7.6-4.37,19.08-4.83,25.65-1l109.67,63.54c6.57,3.81,5.74,10.44-1.86,14.81L139.76,617.93C132.16,622.3,120.67,622.76,114.1,619Z"/><path class="cls-20" d="M126.14,558.06,205.2,426.17c7.6-4.37,19.08-4.83,25.65-1l109.67,63.54c6.57,3.81,5.74,10.44-1.86,14.81L139.76,617.93a29.32,29.32,0,0,1-13.22,3.58Z"/><polygon class="cls-20" points="212.69 514.42 232.88 487.1 344.97 482.56 344.93 495.37 222.38 534.22 212.69 514.42"/><path class="cls-8" d="M108.14,608.73c0,1.9-1.35,2.67-3,1.71a6.65,6.65,0,0,1-3-5.2c0-1.9,1.36-2.67,3-1.71A6.64,6.64,0,0,1,108.14,608.73Z"/><path class="cls-8" d="M114.12,606.41,4.45,542.87c-6.57-3.81-5.74-10.44,1.86-14.81L205.22,413.63c7.59-4.38,19.08-4.83,25.65-1l109.67,63.55c6.57,3.8,5.74,10.43-1.86,14.8L139.78,605.39C132.18,609.76,120.69,610.22,114.12,606.41Z"/><path class="cls-49" d="M289.37,457.44l-30.28-17.55c-1.25-.72-1.09-2,.35-2.82h0a5.49,5.49,0,0,1,4.9-.2l30.28,17.55c1.25.72,1.09,2-.36,2.82h0A5.46,5.46,0,0,1,289.37,457.44Z"/><path class="cls-8" d="M69.07,588.87,44.74,574.78a4.52,4.52,0,0,1-1.87-3.59h0c0-1.37.85-2,1.88-1.41l24.32,14.09a4.46,4.46,0,0,1,1.87,3.58h0C70.94,588.83,70.1,589.47,69.07,588.87Z"/><path class="cls-8" d="M310.32,515.39l12-6.91a3.08,3.08,0,0,0,1.29-2.46h0c0-.95-.58-1.39-1.29-1l-12,6.9a3.1,3.1,0,0,0-1.29,2.47h0C309,515.36,309.61,515.8,310.32,515.39Z"/><path class="cls-8" d="M293.3,526l12-6.9a3.11,3.11,0,0,0,1.3-2.47h0c0-.95-.58-1.39-1.29-1l-12,6.9a3.11,3.11,0,0,0-1.3,2.47h0C292,526,292.59,526.45,293.3,526Z"/><path class="cls-50" d="M211.39,420.2,44.13,516.43a5.84,5.84,0,0,0,0,10.11l101.37,58.73a5.84,5.84,0,0,0,5.83,0l167.26-96.23a5.83,5.83,0,0,0,0-10.11L217.23,420.21A5.83,5.83,0,0,0,211.39,420.2Z"/><path class="cls-8" d="M256.15,457.47c-24.15-13.94-63.19-14-87.19-.16s-23.88,36.4.27,50.34,63.19,14,87.19.16S280.3,471.42,256.15,457.47Zm-72.6,41.92c-16.2-9.35-16.28-24.47-.18-33.76s42.27-9.24,58.46.11,16.28,24.46.19,33.75S199.74,508.74,183.55,499.39Z"/><path class="cls-10" d="M256.42,507.81c14.69-8.48,20.33-20.21,17-31.23l-19.93,2.2c2.11,7.33-1.7,15.09-11.44,20.71-13.33,7.7-33.55,9-49.31,3.9l-10.44,10C205.86,521.24,236.38,519.38,256.42,507.81Z"/><path class="cls-4" d="M216.27,447.05l-1.58,11.68c9.86.31,19.59,2.65,27.14,7,6.84,3.95,10.8,8.92,11.89,14.06l20.22-1c-1.51-7.77-7.44-15.33-17.79-21.31C245,451.06,230.77,447.58,216.27,447.05Z"/><path class="cls-4" d="M159.87,538.74l-46.59-26.89c-3.06-1.77-2.67-4.89.86-6.93h0c3.54-2,8.93-2.26,12-.5l46.59,26.9c3.06,1.77,2.68,4.89-.86,6.93h0C168.33,540.29,162.93,540.51,159.87,538.74Z"/><path class="cls-4" d="M136.88,551.29l-46.59-26.9c-3.06-1.77-2.67-4.88.86-6.92h0c3.54-2,8.94-2.27,12-.5l46.59,26.9c3.06,1.77,2.67,4.88-.87,6.92h0C145.34,552.83,139.94,553.06,136.88,551.29Z"/><path class="cls-14" d="M610.8,119c-1.53,9.75-5.06,16.88-9.92,25.28-1.59,2.76-3.31,5.22-2.78,8.43.73,4.41,2.12,8.6,2.61,13.1.55,4.93-7.18,4.89-7.72,0-.88-8.05-4.55-14.1-.72-21.86,2-4.07,4.7-7.76,6.8-11.78,2.47-4.75,3.46-10,4.28-15.22.76-4.89,8.21-2.82,7.45,2Z"/><path class="cls-15" d="M612.68,119.16c-3.15,9-7.35,17.36-10.86,26.16-2.43,6.08-12.39,3.42-9.93-2.74,3.51-8.8,7.71-17.2,10.86-26.16,2.19-6.21,12.14-3.54,9.93,2.74Z"/><path class="cls-14" d="M615.48,174.81c-8.66,3.9-19.32,11.23-23.75,19.93-2.59,5.09-2.2,10.29-1.91,15.73l1.53,28.63c.38,7-10.52,7-10.89,0l-1.68-31.3c-.39-7.27.71-14.45,4.77-20.67,6-9.17,16.54-17.27,26.43-21.73,6.34-2.86,11.89,6.53,5.5,9.41Z"/><path class="cls-14" d="M549.15,215.1c7.88-8.58,13.51-18.63,22.35-26.42,5.48-4.83,11.43-7.5,18.58-5.41,8.62,2.5,15.73,3,23.56-2.28,5.84-3.92,11.3,5.52,5.5,9.41a32.83,32.83,0,0,1-24.21,5.32c-2.95-.49-5.7-1.53-8.59-2.2-1.2-.28-1.1-.34-1.73-.26-2.58.35-4.89,2.62-6.68,4.29-8.16,7.58-13.6,17.12-21.08,25.25-4.75,5.17-12.44-2.55-7.7-7.7Z"/><path class="cls-51" d="M550.65,229.67l-.34-.69a.8.8,0,0,1,.38-1.07h0a.79.79,0,0,1,1.06.37l.34.7a.79.79,0,0,1-.37,1.06h0A.79.79,0,0,1,550.65,229.67Z"/><path class="cls-52" d="M550.4,228.13l2.17-2.92a.79.79,0,0,1,1.11-.16h0a.8.8,0,0,1,.17,1.12l-2.16,2.91a.81.81,0,0,1-1.12.17h0A.81.81,0,0,1,550.4,228.13Z"/><path class="cls-8" d="M561.15,219.11c.3-1.91-.46-4.79-1.68-5.25l-5.83,2.3-.48-.17c-2.84.79-16.16,3.21-20.28,4.56-2.1.69-.38,3.34-.38,3.34,4.35,4.68,11.06,6.12,11.06,6.12,3.25.13,3.34-2.93,7.92-4.51.77-.26,2.06-.17,1.83.45l-2.74,3.3,1.37.65s4.36-4.38,7.46-7.2A4.49,4.49,0,0,0,561.15,219.11Z"/><path class="cls-14" d="M559.06,213l-3.61.19s-12.12,4.62-14.48,5.59c-2.75,1.12,2,10.1,16,1.88C565.34,217.06,559.06,213,559.06,213Z"/><path class="cls-53" d="M602.31,158.09c-18.68,11.85-30.08,22.68-29.37,27.77,0,0,9.3-5.16,16.6-.92s5.65,7.79,3.81,9.73c-.58.6,3.2,4.63,4,4.66,8.66.26,35.46-2.9,36-19.23.45-13.84-1.44-15.5-1.44-15.5S612.47,171.35,602.31,158.09Z"/><path class="cls-20" d="M607.74,119.16s-7.12,9.9-6.73,16.14c.25,4,2.83,8.56,3.18,9.85,2.8,10.52.74,13.54.95,16.42,0,0,1.7,10,26.48,2.07l11-29Z"/><path class="cls-20" d="M639.92,141.44c.23-.37,2.57-4.07,2.66-4.49,1.09-4.91,4-8.65-1.28-15.16-1.09-1.35-13.16-8.83-22.6-11.1a10.21,10.21,0,0,0-11.42,5.41,54.37,54.37,0,0,0-2.58,7.39c-1,9.77,4.06-2.84,4.44,2.61,0-.13,0-.27,0-.4s.66,9.21,1.15,16.33c.3,4.45.51,7.66.52,8.11v.06l15.79,14L636.17,149h0Z"/><path class="cls-14" d="M619.3,110.58s-8.76,8.07-1.94,14.54,19.82-6.36,19.82-6.36C631,114.37,625,111.29,619.3,110.58Z"/><path class="cls-20" d="M642.58,137c-1.07.44-4,4.43-6.37,6.49-4.53,4-11.1,6.33-16.9,4.59a94.57,94.57,0,0,1-17-7.44s1.75,10.6,0,17.5c-1.16,4.59,8.54,8.06,8.54,8.06,10.73,4,21.09-1.55,21.09-1.55l7.95-21.26Z"/><path class="cls-53" d="M616.87,110.22a28,28,0,0,0-1.82,5.44,22.44,22.44,0,0,0-1.27,6.2c0,1.44,1.23,2.63,2.3,3.46a10.49,10.49,0,0,0,4.66,2.06,11.12,11.12,0,0,0,5-.25,20.31,20.31,0,0,0,3.83-1.81c1.2-.66,2.4-1.32,3.6-2a8.47,8.47,0,0,0,1.58-1c.73-.59,1.29-1.34,2-1.92a1.38,1.38,0,0,0,0-1.93,1.4,1.4,0,0,0-1.93,0,19.22,19.22,0,0,1-2.78,2.32c-.82.43-1.63.87-2.44,1.32-2.12,1.15-4.2,2.59-6.69,2.65a8.19,8.19,0,0,1-4.2-1,6.82,6.82,0,0,1-1.74-1.33,5.17,5.17,0,0,1-.52-.71s0,.27,0,0a36.55,36.55,0,0,1,1.08-5c.31-1.11.64-2.21,1-3.31.14-.42.28-.84.43-1.26,0-.15.11-.31.17-.46,0,0-.07.14.05-.09.8-1.56-1.55-2.94-2.35-1.38Z"/><path class="cls-51" d="M590.17,249.93l-.68-.36a.81.81,0,0,1-.34-1.08h0a.81.81,0,0,1,1.08-.34l.68.36a.8.8,0,0,1,.34,1.08h0A.81.81,0,0,1,590.17,249.93Z"/><path class="cls-52" d="M589.05,248.84v-3.63a.8.8,0,0,1,.8-.8h0a.8.8,0,0,1,.8.8v3.63a.8.8,0,0,1-.8.8h0A.8.8,0,0,1,589.05,248.84Z"/><path class="cls-8" d="M592.31,235.19c-.89-1.71-3.22-3.57-4.47-3.21l-3.32,5.31-.49.16c-1.81,2.32-11.06,12.2-13.57,15.75-1.27,1.8,1.69,2.9,1.69,2.9,6.28,1.17,12.53-1.67,12.53-1.67,2.68-1.84.93-4.34,3.67-8.34.47-.68,1.56-1.37,1.74-.73l-.24,4.28,1.49-.29s.9-6.12,1.71-10.23A4.53,4.53,0,0,0,592.31,235.19Z"/><path class="cls-14" d="M587,231.53l-2.78,2.3s-7,10.93-8.3,13.12c-1.53,2.53,7.64,6.9,14-8C594.45,231.05,587,231.53,587,231.53Z"/><path class="cls-8" d="M604.74,94.76c-1.1,3.11-1.39,6.85.63,9.45.37.48.81.9,1.22,1.34a19.47,19.47,0,0,1,2.82,3.81,1.83,1.83,0,0,0,.49.64,1.37,1.37,0,0,0,1.7-.31,9.28,9.28,0,0,0,1-1.58c1-1.56,22.4,10.89,23.45,9.34,1.43-2.09-3.83-25.72-4.39-28.19-.7-3.15-16.31,1-18.87-1a14,14,0,0,1-1.51-1.15h0c-.65-.65-1.24-2-2.31-1.56-.87.38-1.16,1.94-1.46,2.69C606.66,90.48,605.53,92.54,604.74,94.76Z"/><path class="cls-14" d="M620.49,116.1l-4.31-16.62,10.42,3.3,3.5,13.57C630.85,118.56,623.6,124.59,620.49,116.1Z"/><path class="cls-25" d="M619.45,111.73s4.67-2.39,4.69-2.44-1.6,3.4-3.92,4.73Z"/><path class="cls-14" d="M616.92,80.47h2.81a7.87,7.87,0,0,1,7.87,7.87v14.28a7.86,7.86,0,0,1-7.86,7.86h-2.81a7.87,7.87,0,0,1-7.87-7.87V88.34a7.87,7.87,0,0,1,7.87-7.87Z" transform="translate(-2.84 20.7) rotate(-1.91)"/><path class="cls-8" d="M622.27,92.21c-3.26-4-9.29.77-12.55-.49-3.53-1.36-2.33-5,.06-7.92A13.35,13.35,0,0,1,616,79.66c9.14-3.45,18.32.41,18.66,10.76,0,0,1.2,14.06-7.06,16.15l-.89-2s4.75-5.24-.31-8.29c-1.18-.71-1.23-.74-1.13-2.45S623.37,93.56,622.27,92.21Z"/><path class="cls-14" d="M629.54,104.79c-1.45,1.21-3.12.79-3.71-.93a5.2,5.2,0,0,1,1.54-5.3c1.46-1.21,3.12-.79,3.71.93A5.21,5.21,0,0,1,629.54,104.79Z"/><path class="cls-8" d="M607.5,99.91s.14-4.75,11.51-11,.51-.29.51-.29l-11.27-2.55S603.79,91.17,607.5,99.91Z"/><path class="cls-14" d="M646.31,132.85a111,111,0,0,1,.8,19.19c-.12,6,1.6,12.93-.12,18.79-1.12,3.79-4.2,5.47-7.91,5.91-6.34.76-12.75.45-19.1,1.26-4.92.62-4.87-7.1,0-7.72,5.47-.7,10.89-.82,16.39-1.06,2.81-.13,3.14.44,3.41-1.88.63-5.54-.56-11.33-.34-16.91a80.72,80.72,0,0,0-.58-15.53c-.72-4.86,6.72-7,7.45-2.05Z"/><path class="cls-4" d="M645.12,126.67c4.71,12.14,3.53,23.69,3.22,36.4-.17,6.61-10.46,6.64-10.3,0,.29-11.81,1.53-22.38-2.85-33.67-2.4-6.18,7.55-8.86,9.93-2.73Z"/><path class="cls-14" d="M598.33,173.13h0a4.47,4.47,0,0,1-5.11-3.69L591.7,160a4.46,4.46,0,0,1,3.68-5.1h0a4.46,4.46,0,0,1,5.1,3.68L602,168A4.47,4.47,0,0,1,598.33,173.13Z"/><path class="cls-26" d="M622.75,179.34v-.86l-1.11.43-.24-.55-27.82-16.07a1.47,1.47,0,0,0-1.32.06l-12,6.91v-.19l-2.22.89v.92h0a.47.47,0,0,0,.21.24l29,16.72a1.45,1.45,0,0,0,1.31-.06l13.88-8a.54.54,0,0,0,.32-.43Z"/><path class="cls-27" d="M607.22,186.92l-29-16.72c-.33-.19-.29-.53.1-.76l13.88-8a1.48,1.48,0,0,1,1.31-.05l29,16.72c.33.19.29.53-.1.76l-13.87,8A1.47,1.47,0,0,1,607.22,186.92Z"/><path class="cls-26" d="M609.2,176.15l-7-4c-.08-.05-.07-.13,0-.19l3.36-1.94a.34.34,0,0,1,.31,0l7,4.05c.08,0,.07.13,0,.18l-3.36,1.94A.36.36,0,0,1,609.2,176.15Z"/><path class="cls-4" d="M606.49,168.11a3.14,3.14,0,0,0-1.34-2L576.4,149.75a.71.71,0,0,0-.64-.1h0a.44.44,0,0,0-.15.12l-1,1,.86-.08,2.74,17.67a3.09,3.09,0,0,0,1.33,2l27.19,15.45.87,1,.11.24c.55.12,1.87-.81,1.87-.81Z"/><path class="cls-8" d="M607.32,187.78l-28.75-16.34a3.09,3.09,0,0,1-1.33-2l-2.77-17.86c-.11-.76.29-1.1.91-.74l28.75,16.34a3.14,3.14,0,0,1,1.34,2L608.23,187C608.35,187.8,607.94,188.13,607.32,187.78Z"/><path class="cls-14" d="M609.17,177.63h0A4.47,4.47,0,0,1,612,172l8.05-2.64a4.46,4.46,0,0,1,5.61,2.84h0a4.47,4.47,0,0,1-2.84,5.62l-8.05,2.64A4.48,4.48,0,0,1,609.17,177.63Z"/><path class="cls-4" d="M592,170.48c.15,1-.71,1.17-1.92.48a5.12,5.12,0,0,1-2.45-3c-.15-.95.71-1.16,1.92-.48A5.15,5.15,0,0,1,592,170.48Z"/><path class="cls-8" d="M621.79,91.7s9.14,12,8.32,19.79c-.67,6.47-7.71,10.59-9,20.37a2,2,0,0,0,3.63,1.49,28.31,28.31,0,0,1,6.16-6c6.1-4.17,7.21-8.62,6.64-11.87s-3.12-27-3.12-27l-14-1.39Z"/></g></g></g></svg>